<svg width="302" height="92" viewBox="0 0 302 92" fill="none" xmlns="http://www.w3.org/2000/svg">
<path d="M11.048 35.576C7.784 35.576 5.16 34.664 3.176 32.84C1.224 30.984 0.248 28.36 0.248 24.968H6.392C6.424 26.536 6.792 27.784 7.496 28.712C8.2 29.64 9.336 30.104 10.904 30.104C12.376 30.104 13.448 29.672 14.12 28.808C14.792 27.912 15.128 26.744 15.128 25.304V1.4H21.272V25.304C21.272 28.6 20.344 31.144 18.488 32.936C16.664 34.696 14.184 35.576 11.048 35.576ZM39.0909 35.576C36.7869 35.576 34.7069 35.048 32.8509 33.992C31.0269 32.936 29.5709 31.48 28.4829 29.624C27.4269 27.736 26.8989 25.56 26.8989 23.096C26.8989 20.632 27.4429 18.472 28.5309 16.616C29.6189 14.728 31.0749 13.256 32.8989 12.2C34.7549 11.144 36.8349 10.616 39.1389 10.616C41.4109 10.616 43.4589 11.144 45.2829 12.2C47.1389 13.256 48.5949 14.728 49.6509 16.616C50.7389 18.472 51.2829 20.632 51.2829 23.096C51.2829 25.56 50.7389 27.736 49.6509 29.624C48.5949 31.48 47.1389 32.936 45.2829 33.992C43.4269 35.048 41.3629 35.576 39.0909 35.576ZM39.0909 30.248C40.6909 30.248 42.0829 29.656 43.2669 28.472C44.4509 27.256 45.0429 25.464 45.0429 23.096C45.0429 20.728 44.4509 18.952 43.2669 17.768C42.0829 16.552 40.7069 15.944 39.1389 15.944C37.5069 15.944 36.0989 16.552 34.9149 17.768C33.7629 18.952 33.1869 20.728 33.1869 23.096C33.1869 25.464 33.7629 27.256 34.9149 28.472C36.0989 29.656 37.4909 30.248 39.0909 30.248ZM56.7763 35V0.439999H62.9203V14.84C63.7203 13.528 64.7923 12.504 66.1363 11.768C67.5123 11 69.0803 10.616 70.8403 10.616C73.7843 10.616 76.0563 11.544 77.6562 13.4C79.2882 15.256 80.1042 17.976 80.1042 21.56V35H74.0083V22.136C74.0083 20.088 73.5923 18.52 72.7603 17.432C71.9603 16.344 70.6803 15.8 68.9203 15.8C67.1923 15.8 65.7523 16.408 64.6003 17.624C63.4803 18.84 62.9203 20.536 62.9203 22.712V35H56.7763ZM85.9794 35V11.192H91.4034L91.8834 15.224C92.6194 13.816 93.6754 12.696 95.0514 11.864C96.4594 11.032 98.1074 10.616 99.9954 10.616C102.939 10.616 105.227 11.544 106.859 13.4C108.491 15.256 109.307 17.976 109.307 21.56V35H103.163V22.136C103.163 20.088 102.747 18.52 101.915 17.432C101.083 16.344 99.7874 15.8 98.0274 15.8C96.2994 15.8 94.8754 16.408 93.7554 17.624C92.6674 18.84 92.1234 20.536 92.1234 22.712V35H85.9794ZM133.58 35L124.7 1.4H131.276L137.324 28.136L144.428 1.4H151.196L158.108 28.136L164.156 1.4H170.78L161.66 35H154.364L147.692 10.088L140.828 35H133.58ZM178.401 7.496C177.281 7.496 176.353 7.16 175.617 6.488C174.913 5.816 174.561 4.968 174.561 3.944C174.561 2.92 174.913 2.088 175.617 1.448C176.353 0.775998 177.281 0.439999 178.401 0.439999C179.521 0.439999 180.433 0.775998 181.137 1.448C181.873 2.088 182.241 2.92 182.241 3.944C182.241 4.968 181.873 5.816 181.137 6.488C180.433 7.16 179.521 7.496 178.401 7.496ZM175.329 35V11.192H181.473V35H175.329ZM199.55 35.576C197.118 35.576 194.974 35.048 193.118 33.992C191.262 32.936 189.79 31.464 188.702 29.576C187.646 27.688 187.118 25.528 187.118 23.096C187.118 20.664 187.646 18.504 188.702 16.616C189.79 14.728 191.262 13.256 193.118 12.2C194.974 11.144 197.118 10.616 199.55 10.616C202.59 10.616 205.15 11.416 207.23 13.016C209.31 14.584 210.638 16.76 211.214 19.544H204.734C204.414 18.392 203.774 17.496 202.814 16.856C201.886 16.184 200.782 15.848 199.502 15.848C197.806 15.848 196.366 16.488 195.182 17.768C193.998 19.048 193.406 20.824 193.406 23.096C193.406 25.368 193.998 27.144 195.182 28.424C196.366 29.704 197.806 30.344 199.502 30.344C200.782 30.344 201.886 30.024 202.814 29.384C203.774 28.744 204.414 27.832 204.734 26.648H211.214C210.638 29.336 209.31 31.496 207.23 33.128C205.15 34.76 202.59 35.576 199.55 35.576ZM216.667 35V0.439999H222.811V20.84L231.259 11.192H238.555L228.811 22.04L240.139 35H232.459L222.811 23.048V35H216.667ZM266.522 35.576C264.314 35.576 262.314 35.192 260.522 34.424C258.73 33.624 257.29 32.408 256.202 30.776C255.114 29.144 254.538 27.096 254.474 24.632H260.522C260.554 26.264 261.082 27.64 262.106 28.76C263.162 29.848 264.634 30.392 266.522 30.392C268.314 30.392 269.69 29.896 270.65 28.904C271.61 27.912 272.09 26.664 272.09 25.16C272.09 23.4 271.45 22.072 270.17 21.176C268.922 20.248 267.306 19.784 265.322 19.784H262.826V14.744H265.37C267.002 14.744 268.362 14.36 269.45 13.592C270.538 12.824 271.082 11.688 271.082 10.184C271.082 8.936 270.666 7.944 269.834 7.208C269.034 6.44 267.914 6.056 266.474 6.056C264.906 6.056 263.674 6.52 262.778 7.448C261.914 8.376 261.434 9.512 261.338 10.856H255.338C255.466 7.752 256.538 5.304 258.554 3.512C260.602 1.72 263.242 0.823999 266.474 0.823999C268.778 0.823999 270.714 1.24 272.282 2.072C273.882 2.872 275.082 3.944 275.882 5.288C276.714 6.632 277.13 8.12 277.13 9.752C277.13 11.64 276.602 13.24 275.546 14.552C274.522 15.832 273.242 16.696 271.706 17.144C273.594 17.528 275.13 18.456 276.314 19.928C277.498 21.368 278.09 23.192 278.09 25.4C278.09 27.256 277.642 28.952 276.746 30.488C275.85 32.024 274.538 33.256 272.81 34.184C271.114 35.112 269.018 35.576 266.522 35.576ZM298.057 35.336C296.937 35.336 296.009 34.984 295.273 34.28C294.569 33.576 294.217 32.728 294.217 31.736C294.217 30.712 294.569 29.848 295.273 29.144C296.009 28.44 296.937 28.088 298.057 28.088C299.177 28.088 300.089 28.44 300.793 29.144C301.529 29.848 301.897 30.712 301.897 31.736C301.897 32.728 301.529 33.576 300.793 34.28C300.089 34.984 299.177 35.336 298.057 35.336ZM298.057 17.864C296.937 17.864 296.009 17.512 295.273 16.808C294.569 16.104 294.217 15.256 294.217 14.264C294.217 13.24 294.569 12.376 295.273 11.672C296.009 10.968 296.937 10.616 298.057 10.616C299.177 10.616 300.089 10.968 300.793 11.672C301.529 12.376 301.897 13.24 301.897 14.264C301.897 15.256 301.529 16.104 300.793 16.808C300.089 17.512 299.177 17.864 298.057 17.864ZM2.264 91V57.4H14.696C17.384 57.4 19.608 57.848 21.368 58.744C23.128 59.64 24.44 60.872 25.304 62.44C26.168 64.008 26.6 65.768 26.6 67.72C26.6 69.576 26.184 71.288 25.352 72.856C24.52 74.392 23.224 75.64 21.464 76.6C19.704 77.528 17.448 77.992 14.696 77.992H8.408V91H2.264ZM8.408 73H14.312C16.456 73 17.992 72.536 18.92 71.608C19.88 70.648 20.36 69.352 20.36 67.72C20.36 66.056 19.88 64.76 18.92 63.832C17.992 62.872 16.456 62.392 14.312 62.392H8.408V73ZM37.9843 91.576C35.9363 91.576 34.2563 91.256 32.9443 90.616C31.6323 89.944 30.6563 89.064 30.0163 87.976C29.3763 86.888 29.0563 85.688 29.0563 84.376C29.0563 82.168 29.9203 80.376 31.6483 79C33.3763 77.624 35.9683 76.936 39.4243 76.936H45.4723V76.36C45.4723 74.728 45.0083 73.528 44.0803 72.76C43.1523 71.992 42.0003 71.608 40.6243 71.608C39.3763 71.608 38.2883 71.912 37.3603 72.52C36.4323 73.096 35.8563 73.96 35.6323 75.112H29.6323C29.7923 73.384 30.3683 71.88 31.3603 70.6C32.3843 69.32 33.6963 68.344 35.2963 67.672C36.8963 66.968 38.6883 66.616 40.6723 66.616C44.0643 66.616 46.7363 67.464 48.6883 69.16C50.6403 70.856 51.6163 73.256 51.6163 76.36V91H46.3843L45.8083 87.16C45.1043 88.44 44.1123 89.496 42.8323 90.328C41.5843 91.16 39.9683 91.576 37.9843 91.576ZM39.3763 86.776C41.1363 86.776 42.4963 86.2 43.4563 85.048C44.4483 83.896 45.0723 82.472 45.3283 80.776H40.0963C38.4643 80.776 37.2963 81.08 36.5923 81.688C35.8883 82.264 35.5363 82.984 35.5363 83.848C35.5363 84.776 35.8883 85.496 36.5923 86.008C37.2963 86.52 38.2243 86.776 39.3763 86.776ZM57.4794 91V67.192H62.9514L63.5274 71.656C64.3914 70.12 65.5594 68.904 67.0314 68.008C68.5354 67.08 70.2954 66.616 72.3114 66.616V73.096H70.5834C69.2394 73.096 68.0394 73.304 66.9834 73.72C65.9274 74.136 65.0954 74.856 64.4874 75.88C63.9114 76.904 63.6234 78.328 63.6234 80.152V91H57.4794ZM84.7186 91.576C82.6706 91.576 80.9906 91.256 79.6786 90.616C78.3666 89.944 77.3906 89.064 76.7506 87.976C76.1106 86.888 75.7906 85.688 75.7906 84.376C75.7906 82.168 76.6546 80.376 78.3826 79C80.1106 77.624 82.7026 76.936 86.1586 76.936H92.2066V76.36C92.2066 74.728 91.7426 73.528 90.8146 72.76C89.8866 71.992 88.7346 71.608 87.3586 71.608C86.1106 71.608 85.0226 71.912 84.0946 72.52C83.1666 73.096 82.5906 73.96 82.3666 75.112H76.3666C76.5266 73.384 77.1026 71.88 78.0946 70.6C79.1186 69.32 80.4306 68.344 82.0306 67.672C83.6306 66.968 85.4226 66.616 87.4066 66.616C90.7986 66.616 93.4706 67.464 95.4226 69.16C97.3746 70.856 98.3506 73.256 98.3506 76.36V91H93.1186L92.5426 87.16C91.8386 88.44 90.8466 89.496 89.5666 90.328C88.3186 91.16 86.7026 91.576 84.7186 91.576ZM86.1106 86.776C87.8706 86.776 89.2306 86.2 90.1906 85.048C91.1826 83.896 91.8066 82.472 92.0626 80.776H86.8306C85.1986 80.776 84.0306 81.08 83.3266 81.688C82.6226 82.264 82.2706 82.984 82.2706 83.848C82.2706 84.776 82.6226 85.496 83.3266 86.008C84.0306 86.52 84.9586 86.776 86.1106 86.776ZM118.326 91.576C116.534 91.576 114.966 91.24 113.622 90.568C112.278 89.896 111.19 88.952 110.358 87.736L109.686 91H104.214V56.44H110.358V70.6C111.126 69.544 112.134 68.616 113.382 67.816C114.662 67.016 116.31 66.616 118.326 66.616C120.566 66.616 122.566 67.16 124.326 68.248C126.086 69.336 127.478 70.824 128.502 72.712C129.526 74.6 130.038 76.744 130.038 79.144C130.038 81.544 129.526 83.688 128.502 85.576C127.478 87.432 126.086 88.904 124.326 89.992C122.566 91.048 120.566 91.576 118.326 91.576ZM117.03 86.2C118.982 86.2 120.598 85.544 121.878 84.232C123.158 82.92 123.798 81.224 123.798 79.144C123.798 77.064 123.158 75.352 121.878 74.008C120.598 72.664 118.982 71.992 117.03 71.992C115.046 71.992 113.414 72.664 112.134 74.008C110.886 75.32 110.262 77.016 110.262 79.096C110.262 81.176 110.886 82.888 112.134 84.232C113.414 85.544 115.046 86.2 117.03 86.2ZM147.094 91.576C144.694 91.576 142.566 91.064 140.71 90.04C138.854 89.016 137.398 87.576 136.342 85.72C135.286 83.864 134.758 81.72 134.758 79.288C134.758 76.824 135.27 74.632 136.294 72.712C137.35 70.792 138.79 69.304 140.614 68.248C142.47 67.16 144.646 66.616 147.142 66.616C149.478 66.616 151.542 67.128 153.334 68.152C155.126 69.176 156.518 70.584 157.51 72.376C158.534 74.136 159.046 76.104 159.046 78.28C159.046 78.632 159.03 79 158.998 79.384C158.998 79.768 158.982 80.168 158.95 80.584H140.854C140.982 82.44 141.622 83.896 142.774 84.952C143.958 86.008 145.382 86.536 147.046 86.536C148.294 86.536 149.334 86.264 150.166 85.72C151.03 85.144 151.67 84.408 152.086 83.512H158.326C157.878 85.016 157.126 86.392 156.07 87.64C155.046 88.856 153.766 89.816 152.23 90.52C150.726 91.224 149.014 91.576 147.094 91.576ZM147.142 71.608C145.638 71.608 144.31 72.04 143.158 72.904C142.006 73.736 141.27 75.016 140.95 76.744H152.806C152.71 75.176 152.134 73.928 151.078 73C150.022 72.072 148.71 71.608 147.142 71.608ZM164.214 91V56.44H170.358V91H164.214ZM176.636 91V56.44H182.78V91H176.636ZM197.986 91.576C195.01 91.576 192.706 90.648 191.074 88.792C189.474 86.936 188.674 84.216 188.674 80.632V67.192H194.77V80.056C194.77 82.104 195.186 83.672 196.018 84.76C196.85 85.848 198.162 86.392 199.954 86.392C201.65 86.392 203.042 85.784 204.13 84.568C205.25 83.352 205.81 81.656 205.81 79.48V67.192H211.954V91H206.53L206.05 86.968C205.314 88.376 204.242 89.496 202.834 90.328C201.458 91.16 199.842 91.576 197.986 91.576ZM218.261 91V67.192H223.685L224.213 70.408C224.981 69.256 225.989 68.344 227.237 67.672C228.517 66.968 229.989 66.616 231.653 66.616C235.333 66.616 237.941 68.04 239.477 70.888C240.341 69.576 241.493 68.536 242.933 67.768C244.405 67 246.005 66.616 247.733 66.616C250.837 66.616 253.221 67.544 254.885 69.4C256.549 71.256 257.381 73.976 257.381 77.56V91H251.237V78.136C251.237 76.088 250.837 74.52 250.037 73.432C249.269 72.344 248.069 71.8 246.437 71.8C244.773 71.8 243.429 72.408 242.405 73.624C241.413 74.84 240.917 76.536 240.917 78.712V91H234.773V78.136C234.773 76.088 234.373 74.52 233.573 73.432C232.773 72.344 231.541 71.8 229.877 71.8C228.245 71.8 226.917 72.408 225.893 73.624C224.901 74.84 224.405 76.536 224.405 78.712V91H218.261Z" fill="white"/>
</svg>
