<svg width="302" height="69" viewBox="0 0 302 69" fill="none" xmlns="http://www.w3.org/2000/svg">
<path d="M3.36 11.168C2.44533 11.168 1.71733 10.9113 1.176 10.398C0.644 9.88467 0.378 9.16133 0.378 8.228H1.862C1.862 8.69467 1.974 9.082 2.198 9.39C2.43133 9.698 2.80933 9.852 3.332 9.852C3.84533 9.852 4.20933 9.70733 4.424 9.418C4.63867 9.11933 4.746 8.74133 4.746 8.284V1.2H6.23V8.284C6.23 9.208 5.97333 9.922 5.46 10.426C4.94667 10.9207 4.24667 11.168 3.36 11.168ZM11.4048 11.168C10.7421 11.168 10.1448 11.0187 9.61275 10.72C9.09008 10.412 8.67475 9.98733 8.36675 9.446C8.05875 8.89533 7.90475 8.256 7.90475 7.528C7.90475 6.8 8.05875 6.16533 8.36675 5.624C8.68408 5.07333 9.10875 4.64867 9.64075 4.35C10.1728 4.042 10.7654 3.888 11.4188 3.888C12.0814 3.888 12.6741 4.042 13.1968 4.35C13.7288 4.64867 14.1488 5.07333 14.4568 5.624C14.7741 6.16533 14.9327 6.8 14.9327 7.528C14.9327 8.256 14.7741 8.89533 14.4568 9.446C14.1488 9.98733 13.7288 10.412 13.1968 10.72C12.6648 11.0187 12.0674 11.168 11.4048 11.168ZM11.4048 9.894C11.7594 9.894 12.0861 9.80533 12.3848 9.628C12.6928 9.45067 12.9401 9.18933 13.1268 8.844C13.3134 8.48933 13.4068 8.05067 13.4068 7.528C13.4068 7.00533 13.3134 6.57133 13.1268 6.226C12.9494 5.87133 12.7068 5.60533 12.3988 5.428C12.1001 5.25067 11.7734 5.162 11.4188 5.162C11.0641 5.162 10.7328 5.25067 10.4248 5.428C10.1261 5.60533 9.88342 5.87133 9.69675 6.226C9.51008 6.57133 9.41675 7.00533 9.41675 7.528C9.41675 8.05067 9.51008 8.48933 9.69675 8.844C9.88342 9.18933 10.1261 9.45067 10.4248 9.628C10.7234 9.80533 11.0501 9.894 11.4048 9.894ZM16.5376 11V0.92H18.0216V5.176C18.2549 4.77467 18.5769 4.462 18.9876 4.238C19.4076 4.00467 19.8696 3.888 20.3736 3.888C21.2043 3.888 21.8576 4.14933 22.3336 4.672C22.8096 5.19467 23.0476 5.974 23.0476 7.01V11H21.5776V7.164C21.5776 5.82 21.0409 5.148 19.9676 5.148C19.4076 5.148 18.9409 5.344 18.5676 5.736C18.2036 6.128 18.0216 6.688 18.0216 7.416V11H16.5376ZM24.7954 11V4.056H26.1114L26.2234 5.274C26.4381 4.84467 26.7508 4.50867 27.1614 4.266C27.5814 4.014 28.0621 3.888 28.6034 3.888C29.4434 3.888 30.1014 4.14933 30.5774 4.672C31.0628 5.19467 31.3054 5.974 31.3054 7.01V11H29.8354V7.164C29.8354 5.82 29.2848 5.148 28.1834 5.148C27.6328 5.148 27.1754 5.344 26.8114 5.736C26.4568 6.128 26.2794 6.688 26.2794 7.416V11H24.7954ZM38.6386 11.014L35.9926 1.2H37.5886L39.5346 9.32L41.7746 1.2H43.4126L45.5826 9.32L47.5286 1.2H49.1246L46.4366 11H44.7006L42.5586 3.314L40.3466 11L38.6386 11.014ZM51.2702 2.74C50.9902 2.74 50.7569 2.656 50.5702 2.488C50.3929 2.31067 50.3042 2.09133 50.3042 1.83C50.3042 1.56867 50.3929 1.354 50.5702 1.186C50.7569 1.00867 50.9902 0.92 51.2702 0.92C51.5502 0.92 51.7789 1.00867 51.9562 1.186C52.1429 1.354 52.2362 1.56867 52.2362 1.83C52.2362 2.09133 52.1429 2.31067 51.9562 2.488C51.7789 2.656 51.5502 2.74 51.2702 2.74ZM50.5282 11V4.056H52.0122V11H50.5282ZM57.2612 11.168C56.5799 11.168 55.9685 11.014 55.4272 10.706C54.8952 10.398 54.4752 9.97333 54.1672 9.432C53.8685 8.88133 53.7192 8.24667 53.7192 7.528C53.7192 6.80933 53.8685 6.17933 54.1672 5.638C54.4752 5.08733 54.8952 4.658 55.4272 4.35C55.9685 4.042 56.5799 3.888 57.2612 3.888C58.1199 3.888 58.8385 4.112 59.4172 4.56C60.0052 5.008 60.3832 5.61467 60.5512 6.38H58.9972C58.9039 5.99733 58.6985 5.69867 58.3812 5.484C58.0639 5.26933 57.6905 5.162 57.2612 5.162C56.8972 5.162 56.5612 5.25533 56.2532 5.442C55.9452 5.61933 55.6979 5.88533 55.5112 6.24C55.3245 6.58533 55.2312 7.01467 55.2312 7.528C55.2312 8.04133 55.3245 8.47533 55.5112 8.83C55.6979 9.17533 55.9452 9.44133 56.2532 9.628C56.5612 9.81467 56.8972 9.908 57.2612 9.908C57.6905 9.908 58.0639 9.80067 58.3812 9.586C58.6985 9.37133 58.9039 9.068 58.9972 8.676H60.5512C60.3925 9.42267 60.0192 10.0247 59.4312 10.482C58.8432 10.9393 58.1199 11.168 57.2612 11.168ZM62.1607 11V0.92H63.6447V6.926L66.3047 4.056H68.0827L65.1287 7.206L68.5167 11H66.6407L63.6447 7.444V11H62.1607ZM74.0339 2.74C73.7539 2.74 73.5205 2.656 73.3339 2.488C73.1565 2.31067 73.0679 2.09133 73.0679 1.83C73.0679 1.56867 73.1565 1.354 73.3339 1.186C73.5205 1.00867 73.7539 0.92 74.0339 0.92C74.3139 0.92 74.5425 1.00867 74.7199 1.186C74.9065 1.354 74.9999 1.56867 74.9999 1.83C74.9999 2.09133 74.9065 2.31067 74.7199 2.488C74.5425 2.656 74.3139 2.74 74.0339 2.74ZM73.2919 11V4.056H74.7759V11H73.2919ZM79.5069 11.168C78.6295 11.168 77.9062 10.9533 77.3369 10.524C76.7675 10.0947 76.4409 9.52533 76.3569 8.816H77.8549C77.9295 9.13333 78.1069 9.40867 78.3869 9.642C78.6669 9.866 79.0355 9.978 79.4929 9.978C79.9409 9.978 80.2675 9.88467 80.4729 9.698C80.6782 9.51133 80.7809 9.29667 80.7809 9.054C80.7809 8.69933 80.6362 8.46133 80.3469 8.34C80.0669 8.20933 79.6749 8.09267 79.1709 7.99C78.7789 7.906 78.3869 7.794 77.9949 7.654C77.6122 7.514 77.2902 7.318 77.0289 7.066C76.7769 6.80467 76.6509 6.45467 76.6509 6.016C76.6509 5.40933 76.8842 4.90533 77.3509 4.504C77.8175 4.09333 78.4709 3.888 79.3109 3.888C80.0855 3.888 80.7109 4.07467 81.1869 4.448C81.6722 4.82133 81.9569 5.34867 82.0409 6.03H80.6129C80.5662 5.73133 80.4262 5.498 80.1929 5.33C79.9689 5.162 79.6655 5.078 79.2829 5.078C78.9095 5.078 78.6202 5.15733 78.4149 5.316C78.2095 5.46533 78.1069 5.66133 78.1069 5.904C78.1069 6.14667 78.2469 6.338 78.5269 6.478C78.8162 6.618 79.1942 6.744 79.6609 6.856C80.1275 6.95867 80.5569 7.08 80.9489 7.22C81.3502 7.35067 81.6722 7.54667 81.9149 7.808C82.1575 8.06933 82.2789 8.452 82.2789 8.956C82.2882 9.59067 82.0409 10.118 81.5369 10.538C81.0422 10.958 80.3655 11.168 79.5069 11.168ZM90.6743 11.168C90.0116 11.168 89.4143 11.0187 88.8823 10.72C88.3596 10.412 87.9443 9.98733 87.6363 9.446C87.3283 8.89533 87.1743 8.256 87.1743 7.528C87.1743 6.8 87.3283 6.16533 87.6363 5.624C87.9536 5.07333 88.3783 4.64867 88.9103 4.35C89.4423 4.042 90.0349 3.888 90.6883 3.888C91.3509 3.888 91.9436 4.042 92.4663 4.35C92.9983 4.64867 93.4183 5.07333 93.7263 5.624C94.0436 6.16533 94.2023 6.8 94.2023 7.528C94.2023 8.256 94.0436 8.89533 93.7263 9.446C93.4183 9.98733 92.9983 10.412 92.4663 10.72C91.9343 11.0187 91.3369 11.168 90.6743 11.168ZM90.6743 9.894C91.0289 9.894 91.3556 9.80533 91.6543 9.628C91.9623 9.45067 92.2096 9.18933 92.3963 8.844C92.5829 8.48933 92.6763 8.05067 92.6763 7.528C92.6763 7.00533 92.5829 6.57133 92.3963 6.226C92.2189 5.87133 91.9763 5.60533 91.6683 5.428C91.3696 5.25067 91.0429 5.162 90.6883 5.162C90.3336 5.162 90.0023 5.25067 89.6943 5.428C89.3956 5.60533 89.1529 5.87133 88.9663 6.226C88.7796 6.57133 88.6863 7.00533 88.6863 7.528C88.6863 8.05067 88.7796 8.48933 88.9663 8.844C89.1529 9.18933 89.3956 9.45067 89.6943 9.628C89.9929 9.80533 90.3196 9.894 90.6743 9.894ZM95.8071 11V4.056H97.1231L97.2351 5.274C97.4498 4.84467 97.7625 4.50867 98.1731 4.266C98.5931 4.014 99.0738 3.888 99.6151 3.888C100.455 3.888 101.113 4.14933 101.589 4.672C102.074 5.19467 102.317 5.974 102.317 7.01V11H100.847V7.164C100.847 5.82 100.296 5.148 99.1951 5.148C98.6445 5.148 98.1871 5.344 97.8231 5.736C97.4685 6.128 97.2911 6.688 97.2911 7.416V11H95.8071ZM110.504 11C109.823 11 109.282 10.8367 108.88 10.51C108.479 10.174 108.278 9.58133 108.278 8.732V5.302H107.088V4.056H108.278L108.46 2.292H109.762V4.056H111.722V5.302H109.762V8.732C109.762 9.11467 109.842 9.38067 110 9.53C110.168 9.67 110.453 9.74 110.854 9.74H111.652V11H110.504ZM113.252 11V0.92H114.736V5.176C114.97 4.77467 115.292 4.462 115.702 4.238C116.122 4.00467 116.584 3.888 117.088 3.888C117.919 3.888 118.572 4.14933 119.048 4.672C119.524 5.19467 119.762 5.974 119.762 7.01V11H118.292V7.164C118.292 5.82 117.756 5.148 116.682 5.148C116.122 5.148 115.656 5.344 115.282 5.736C114.918 6.128 114.736 6.688 114.736 7.416V11H113.252ZM124.758 11.168C124.077 11.168 123.47 11.0187 122.938 10.72C122.416 10.412 122.005 9.98733 121.706 9.446C121.408 8.90467 121.258 8.27467 121.258 7.556C121.258 6.828 121.403 6.18867 121.692 5.638C121.991 5.08733 122.402 4.658 122.924 4.35C123.456 4.042 124.072 3.888 124.772 3.888C125.454 3.888 126.046 4.042 126.55 4.35C127.054 4.64867 127.446 5.05 127.726 5.554C128.006 6.058 128.146 6.61333 128.146 7.22C128.146 7.31333 128.142 7.416 128.132 7.528C128.132 7.63067 128.128 7.74733 128.118 7.878H122.714C122.761 8.55 122.98 9.06333 123.372 9.418C123.774 9.76333 124.236 9.936 124.758 9.936C125.178 9.936 125.528 9.84267 125.808 9.656C126.098 9.46 126.312 9.19867 126.452 8.872H127.936C127.75 9.52533 127.376 10.0713 126.816 10.51C126.266 10.9487 125.58 11.168 124.758 11.168ZM124.758 5.106C124.264 5.106 123.825 5.25533 123.442 5.554C123.06 5.84333 122.826 6.282 122.742 6.87H126.662C126.634 6.32867 126.443 5.89933 126.088 5.582C125.734 5.26467 125.29 5.106 124.758 5.106ZM133.213 11V4.056H134.543L134.669 5.372C134.912 4.91467 135.248 4.55533 135.677 4.294C136.116 4.02333 136.643 3.888 137.259 3.888V5.442H136.853C136.443 5.442 136.074 5.512 135.747 5.652C135.43 5.78267 135.173 6.01133 134.977 6.338C134.791 6.65533 134.697 7.09867 134.697 7.668V11H133.213ZM141.094 11.168C140.254 11.168 139.591 10.9067 139.106 10.384C138.63 9.86133 138.392 9.082 138.392 8.046V4.056H139.876V7.892C139.876 9.236 140.426 9.908 141.528 9.908C142.078 9.908 142.531 9.712 142.886 9.32C143.24 8.928 143.418 8.368 143.418 7.64V4.056H144.902V11H143.586L143.474 9.782C143.259 10.2113 142.942 10.552 142.522 10.804C142.111 11.0467 141.635 11.168 141.094 11.168ZM146.79 11V4.056H148.106L148.218 5.274C148.432 4.84467 148.745 4.50867 149.156 4.266C149.576 4.014 150.056 3.888 150.598 3.888C151.438 3.888 152.096 4.14933 152.572 4.672C153.057 5.19467 153.3 5.974 153.3 7.01V11H151.83V7.164C151.83 5.82 151.279 5.148 150.178 5.148C149.627 5.148 149.17 5.344 148.806 5.736C148.451 6.128 148.274 6.688 148.274 7.416V11H146.79ZM160.927 11.168C160.339 11.168 159.853 11.07 159.471 10.874C159.088 10.678 158.803 10.4213 158.617 10.104C158.43 9.77733 158.337 9.42267 158.337 9.04C158.337 8.368 158.598 7.836 159.121 7.444C159.643 7.052 160.39 6.856 161.361 6.856H163.181V6.73C163.181 6.18867 163.031 5.78267 162.733 5.512C162.443 5.24133 162.065 5.106 161.599 5.106C161.188 5.106 160.829 5.20867 160.521 5.414C160.222 5.61 160.04 5.904 159.975 6.296H158.491C158.537 5.792 158.705 5.36267 158.995 5.008C159.293 4.644 159.667 4.36867 160.115 4.182C160.572 3.986 161.071 3.888 161.613 3.888C162.583 3.888 163.335 4.14467 163.867 4.658C164.399 5.162 164.665 5.85267 164.665 6.73V11H163.377L163.251 9.81C163.055 10.1927 162.77 10.5147 162.397 10.776C162.023 11.0373 161.533 11.168 160.927 11.168ZM161.221 9.964C161.622 9.964 161.958 9.87067 162.229 9.684C162.509 9.488 162.723 9.23133 162.873 8.914C163.031 8.59667 163.129 8.24667 163.167 7.864H161.515C160.927 7.864 160.507 7.96667 160.255 8.172C160.012 8.37733 159.891 8.634 159.891 8.942C159.891 9.25933 160.007 9.51133 160.241 9.698C160.483 9.87533 160.81 9.964 161.221 9.964ZM166.745 11V5.302H165.751V4.056H166.745V3.048C166.745 2.292 166.932 1.75067 167.305 1.424C167.688 1.088 168.224 0.92 168.915 0.92H169.643V2.18H169.139C168.812 2.18 168.579 2.25 168.439 2.39C168.299 2.52067 168.229 2.74467 168.229 3.062V4.056H169.825V5.302H168.229V11H166.745ZM174.147 11C173.466 11 172.924 10.8367 172.523 10.51C172.122 10.174 171.921 9.58133 171.921 8.732V5.302H170.731V4.056H171.921L172.103 2.292H173.405V4.056H175.365V5.302H173.405V8.732C173.405 9.11467 173.484 9.38067 173.643 9.53C173.811 9.67 174.096 9.74 174.497 9.74H175.295V11H174.147ZM179.965 11.168C179.284 11.168 178.677 11.0187 178.145 10.72C177.623 10.412 177.212 9.98733 176.913 9.446C176.615 8.90467 176.465 8.27467 176.465 7.556C176.465 6.828 176.61 6.18867 176.899 5.638C177.198 5.08733 177.609 4.658 178.131 4.35C178.663 4.042 179.279 3.888 179.979 3.888C180.661 3.888 181.253 4.042 181.757 4.35C182.261 4.64867 182.653 5.05 182.933 5.554C183.213 6.058 183.353 6.61333 183.353 7.22C183.353 7.31333 183.349 7.416 183.339 7.528C183.339 7.63067 183.335 7.74733 183.325 7.878H177.921C177.968 8.55 178.187 9.06333 178.579 9.418C178.981 9.76333 179.443 9.936 179.965 9.936C180.385 9.936 180.735 9.84267 181.015 9.656C181.305 9.46 181.519 9.19867 181.659 8.872H183.143C182.957 9.52533 182.583 10.0713 182.023 10.51C181.473 10.9487 180.787 11.168 179.965 11.168ZM179.965 5.106C179.471 5.106 179.032 5.25533 178.649 5.554C178.267 5.84333 178.033 6.282 177.949 6.87H181.869C181.841 6.32867 181.65 5.89933 181.295 5.582C180.941 5.26467 180.497 5.106 179.965 5.106ZM184.893 11V4.056H186.223L186.349 5.372C186.592 4.91467 186.928 4.55533 187.357 4.294C187.796 4.02333 188.323 3.888 188.939 3.888V5.442H188.533C188.122 5.442 187.754 5.512 187.427 5.652C187.11 5.78267 186.853 6.01133 186.657 6.338C186.47 6.65533 186.377 7.09867 186.377 7.668V11H184.893ZM193.739 11V0.92H195.223V6.926L197.883 4.056H199.661L196.707 7.206L200.095 11H198.219L195.223 7.444V11H193.739ZM202.085 2.74C201.805 2.74 201.571 2.656 201.385 2.488C201.207 2.31067 201.119 2.09133 201.119 1.83C201.119 1.56867 201.207 1.354 201.385 1.186C201.571 1.00867 201.805 0.92 202.085 0.92C202.365 0.92 202.593 1.00867 202.771 1.186C202.957 1.354 203.051 1.56867 203.051 1.83C203.051 2.09133 202.957 2.31067 202.771 2.488C202.593 2.656 202.365 2.74 202.085 2.74ZM201.343 11V4.056H202.827V11H201.343ZM204.786 11V0.92H206.27V11H204.786ZM208.149 11V0.92H209.633V11H208.149ZM212.352 2.74C212.072 2.74 211.839 2.656 211.652 2.488C211.475 2.31067 211.386 2.09133 211.386 1.83C211.386 1.56867 211.475 1.354 211.652 1.186C211.839 1.00867 212.072 0.92 212.352 0.92C212.632 0.92 212.861 1.00867 213.038 1.186C213.225 1.354 213.318 1.56867 213.318 1.83C213.318 2.09133 213.225 2.31067 213.038 2.488C212.861 2.656 212.632 2.74 212.352 2.74ZM211.61 11V4.056H213.094V11H211.61ZM215.053 11V4.056H216.369L216.481 5.274C216.696 4.84467 217.009 4.50867 217.419 4.266C217.839 4.014 218.32 3.888 218.861 3.888C219.701 3.888 220.359 4.14933 220.835 4.672C221.321 5.19467 221.563 5.974 221.563 7.01V11H220.093V7.164C220.093 5.82 219.543 5.148 218.441 5.148C217.891 5.148 217.433 5.344 217.069 5.736C216.715 6.128 216.537 6.688 216.537 7.416V11H215.053ZM226.153 8.872C225.789 8.872 225.453 8.83 225.145 8.746L224.543 9.334C224.646 9.39933 224.772 9.45533 224.921 9.502C225.07 9.54867 225.28 9.59067 225.551 9.628C225.822 9.66533 226.19 9.70267 226.657 9.74C227.581 9.824 228.248 10.048 228.659 10.412C229.07 10.7667 229.275 11.2427 229.275 11.84C229.275 12.2507 229.163 12.638 228.939 13.002C228.724 13.3753 228.384 13.674 227.917 13.898C227.46 14.1313 226.872 14.248 226.153 14.248C225.182 14.248 224.394 14.0613 223.787 13.688C223.19 13.324 222.891 12.7687 222.891 12.022C222.891 11.7327 222.966 11.4433 223.115 11.154C223.274 10.874 223.521 10.608 223.857 10.356C223.661 10.272 223.488 10.1833 223.339 10.09C223.199 9.98733 223.073 9.88467 222.961 9.782V9.446L224.165 8.214C223.624 7.74733 223.353 7.136 223.353 6.38C223.353 5.92267 223.46 5.50733 223.675 5.134C223.899 4.75133 224.221 4.448 224.641 4.224C225.061 4 225.565 3.888 226.153 3.888C226.545 3.888 226.909 3.944 227.245 4.056H229.835V5.036L228.603 5.106C228.827 5.48867 228.939 5.91333 228.939 6.38C228.939 6.84667 228.827 7.26667 228.603 7.64C228.388 8.01333 228.071 8.312 227.651 8.536C227.24 8.76 226.741 8.872 226.153 8.872ZM226.153 7.71C226.582 7.71 226.928 7.598 227.189 7.374C227.46 7.14067 227.595 6.814 227.595 6.394C227.595 5.96467 227.46 5.638 227.189 5.414C226.928 5.19 226.582 5.078 226.153 5.078C225.714 5.078 225.36 5.19 225.089 5.414C224.828 5.638 224.697 5.96467 224.697 6.394C224.697 6.814 224.828 7.14067 225.089 7.374C225.36 7.598 225.714 7.71 226.153 7.71ZM224.291 11.882C224.291 12.2833 224.468 12.582 224.823 12.778C225.178 12.9833 225.621 13.086 226.153 13.086C226.666 13.086 227.082 12.974 227.399 12.75C227.716 12.5353 227.875 12.246 227.875 11.882C227.875 11.6113 227.768 11.378 227.553 11.182C227.338 10.9953 226.932 10.8787 226.335 10.832C225.887 10.804 225.49 10.762 225.145 10.706C224.818 10.8833 224.594 11.0747 224.473 11.28C224.352 11.4853 224.291 11.686 224.291 11.882ZM237.038 11.168C236.45 11.168 235.965 11.07 235.582 10.874C235.199 10.678 234.915 10.4213 234.728 10.104C234.541 9.77733 234.448 9.42267 234.448 9.04C234.448 8.368 234.709 7.836 235.232 7.444C235.755 7.052 236.501 6.856 237.472 6.856H239.292V6.73C239.292 6.18867 239.143 5.78267 238.844 5.512C238.555 5.24133 238.177 5.106 237.71 5.106C237.299 5.106 236.94 5.20867 236.632 5.414C236.333 5.61 236.151 5.904 236.086 6.296H234.602C234.649 5.792 234.817 5.36267 235.106 5.008C235.405 4.644 235.778 4.36867 236.226 4.182C236.683 3.986 237.183 3.888 237.724 3.888C238.695 3.888 239.446 4.14467 239.978 4.658C240.51 5.162 240.776 5.85267 240.776 6.73V11H239.488L239.362 9.81C239.166 10.1927 238.881 10.5147 238.508 10.776C238.135 11.0373 237.645 11.168 237.038 11.168ZM237.332 9.964C237.733 9.964 238.069 9.87067 238.34 9.684C238.62 9.488 238.835 9.23133 238.984 8.914C239.143 8.59667 239.241 8.24667 239.278 7.864H237.626C237.038 7.864 236.618 7.96667 236.366 8.172C236.123 8.37733 236.002 8.634 236.002 8.942C236.002 9.25933 236.119 9.51133 236.352 9.698C236.595 9.87533 236.921 9.964 237.332 9.964ZM246.034 11V4.056H247.35L247.476 5.036C247.7 4.68133 247.994 4.40133 248.358 4.196C248.731 3.99067 249.16 3.888 249.646 3.888C250.747 3.888 251.512 4.322 251.942 5.19C252.194 4.78867 252.53 4.47133 252.95 4.238C253.379 4.00467 253.841 3.888 254.336 3.888C255.204 3.888 255.885 4.14933 256.38 4.672C256.874 5.19467 257.122 5.974 257.122 7.01V11H255.638V7.164C255.638 5.82 255.124 5.148 254.098 5.148C253.575 5.148 253.146 5.344 252.81 5.736C252.483 6.128 252.32 6.688 252.32 7.416V11H250.836V7.164C250.836 5.82 250.318 5.148 249.282 5.148C248.768 5.148 248.344 5.344 248.008 5.736C247.681 6.128 247.518 6.688 247.518 7.416V11H246.034ZM262.106 11.168C261.425 11.168 260.818 11.0187 260.286 10.72C259.763 10.412 259.353 9.98733 259.054 9.446C258.755 8.90467 258.606 8.27467 258.606 7.556C258.606 6.828 258.751 6.18867 259.04 5.638C259.339 5.08733 259.749 4.658 260.272 4.35C260.804 4.042 261.42 3.888 262.12 3.888C262.801 3.888 263.394 4.042 263.898 4.35C264.402 4.64867 264.794 5.05 265.074 5.554C265.354 6.058 265.494 6.61333 265.494 7.22C265.494 7.31333 265.489 7.416 265.48 7.528C265.48 7.63067 265.475 7.74733 265.466 7.878H260.062C260.109 8.55 260.328 9.06333 260.72 9.418C261.121 9.76333 261.583 9.936 262.106 9.936C262.526 9.936 262.876 9.84267 263.156 9.656C263.445 9.46 263.66 9.19867 263.8 8.872H265.284C265.097 9.52533 264.724 10.0713 264.164 10.51C263.613 10.9487 262.927 11.168 262.106 11.168ZM262.106 5.106C261.611 5.106 261.173 5.25533 260.79 5.554C260.407 5.84333 260.174 6.282 260.09 6.87H264.01C263.982 6.32867 263.791 5.89933 263.436 5.582C263.081 5.26467 262.638 5.106 262.106 5.106ZM267.034 11V4.056H268.35L268.476 5.036C268.7 4.68133 268.994 4.40133 269.358 4.196C269.731 3.99067 270.16 3.888 270.646 3.888C271.747 3.888 272.512 4.322 272.942 5.19C273.194 4.78867 273.53 4.47133 273.95 4.238C274.379 4.00467 274.841 3.888 275.336 3.888C276.204 3.888 276.885 4.14933 277.38 4.672C277.874 5.19467 278.122 5.974 278.122 7.01V11H276.638V7.164C276.638 5.82 276.124 5.148 275.098 5.148C274.575 5.148 274.146 5.344 273.81 5.736C273.483 6.128 273.32 6.688 273.32 7.416V11H271.836V7.164C271.836 5.82 271.318 5.148 270.282 5.148C269.768 5.148 269.344 5.344 269.008 5.736C268.681 6.128 268.518 6.688 268.518 7.416V11H267.034ZM283.764 11.168C283.223 11.168 282.742 11.0607 282.322 10.846C281.911 10.6313 281.585 10.328 281.342 9.936L281.188 11H279.858V0.92H281.342V5.134C281.566 4.80733 281.874 4.518 282.266 4.266C282.658 4.014 283.162 3.888 283.778 3.888C284.45 3.888 285.043 4.04667 285.556 4.364C286.069 4.68133 286.471 5.11533 286.76 5.666C287.059 6.21667 287.208 6.842 287.208 7.542C287.208 8.242 287.059 8.86733 286.76 9.418C286.471 9.95933 286.069 10.3887 285.556 10.706C285.043 11.014 284.445 11.168 283.764 11.168ZM283.512 9.88C284.147 9.88 284.669 9.66533 285.08 9.236C285.491 8.79733 285.696 8.228 285.696 7.528C285.696 7.07067 285.603 6.66467 285.416 6.31C285.229 5.95533 284.973 5.68 284.646 5.484C284.319 5.27867 283.941 5.176 283.512 5.176C282.877 5.176 282.355 5.39533 281.944 5.834C281.543 6.27267 281.342 6.83733 281.342 7.528C281.342 8.228 281.543 8.79733 281.944 9.236C282.355 9.66533 282.877 9.88 283.512 9.88ZM292.061 11.168C291.38 11.168 290.773 11.0187 290.241 10.72C289.718 10.412 289.308 9.98733 289.009 9.446C288.71 8.90467 288.561 8.27467 288.561 7.556C288.561 6.828 288.706 6.18867 288.995 5.638C289.294 5.08733 289.704 4.658 290.227 4.35C290.759 4.042 291.375 3.888 292.075 3.888C292.756 3.888 293.349 4.042 293.853 4.35C294.357 4.64867 294.749 5.05 295.029 5.554C295.309 6.058 295.449 6.61333 295.449 7.22C295.449 7.31333 295.444 7.416 295.435 7.528C295.435 7.63067 295.43 7.74733 295.421 7.878H290.017C290.064 8.55 290.283 9.06333 290.675 9.418C291.076 9.76333 291.538 9.936 292.061 9.936C292.481 9.936 292.831 9.84267 293.111 9.656C293.4 9.46 293.615 9.19867 293.755 8.872H295.239C295.052 9.52533 294.679 10.0713 294.119 10.51C293.568 10.9487 292.882 11.168 292.061 11.168ZM292.061 5.106C291.566 5.106 291.128 5.25533 290.745 5.554C290.362 5.84333 290.129 6.282 290.045 6.87H293.965C293.937 6.32867 293.746 5.89933 293.391 5.582C293.036 5.26467 292.593 5.106 292.061 5.106ZM296.989 11V4.056H298.319L298.445 5.372C298.687 4.91467 299.023 4.55533 299.453 4.294C299.891 4.02333 300.419 3.888 301.035 3.888V5.442H300.629C300.218 5.442 299.849 5.512 299.523 5.652C299.205 5.78267 298.949 6.01133 298.753 6.338C298.566 6.65533 298.473 7.09867 298.473 7.668V11H296.989ZM4.186 29.168C3.52333 29.168 2.926 29.0187 2.394 28.72C1.87133 28.412 1.456 27.9873 1.148 27.446C0.84 26.8953 0.686 26.256 0.686 25.528C0.686 24.8 0.84 24.1653 1.148 23.624C1.46533 23.0733 1.89 22.6487 2.422 22.35C2.954 22.042 3.54667 21.888 4.2 21.888C4.86267 21.888 5.45533 22.042 5.978 22.35C6.51 22.6487 6.93 23.0733 7.238 23.624C7.55533 24.1653 7.714 24.8 7.714 25.528C7.714 26.256 7.55533 26.8953 7.238 27.446C6.93 27.9873 6.51 28.412 5.978 28.72C5.446 29.0187 4.84867 29.168 4.186 29.168ZM4.186 27.894C4.54067 27.894 4.86733 27.8053 5.166 27.628C5.474 27.4507 5.72133 27.1893 5.908 26.844C6.09467 26.4893 6.188 26.0507 6.188 25.528C6.188 25.0053 6.09467 24.5713 5.908 24.226C5.73067 23.8713 5.488 23.6053 5.18 23.428C4.88133 23.2507 4.55467 23.162 4.2 23.162C3.84533 23.162 3.514 23.2507 3.206 23.428C2.90733 23.6053 2.66467 23.8713 2.478 24.226C2.29133 24.5713 2.198 25.0053 2.198 25.528C2.198 26.0507 2.29133 26.4893 2.478 26.844C2.66467 27.1893 2.90733 27.4507 3.206 27.628C3.50467 27.8053 3.83133 27.894 4.186 27.894ZM9.66886 29V23.302H8.67486V22.056H9.66886V21.048C9.66886 20.292 9.85553 19.7507 10.2289 19.424C10.6115 19.088 11.1482 18.92 11.8389 18.92H12.5669V20.18H12.0629C11.7362 20.18 11.5029 20.25 11.3629 20.39C11.2229 20.5207 11.1529 20.7447 11.1529 21.062V22.056H12.7489V23.302H11.1529V29H9.66886ZM20.598 29C19.9167 29 19.3754 28.8367 18.974 28.51C18.5727 28.174 18.372 27.5813 18.372 26.732V23.302H17.182V22.056H18.372L18.554 20.292H19.856V22.056H21.816V23.302H19.856V26.732C19.856 27.1147 19.9354 27.3807 20.094 27.53C20.262 27.67 20.5467 27.74 20.948 27.74H21.746V29H20.598ZM23.3462 29V18.92H24.8302V23.176C25.0635 22.7747 25.3855 22.462 25.7962 22.238C26.2162 22.0047 26.6782 21.888 27.1822 21.888C28.0129 21.888 28.6662 22.1493 29.1422 22.672C29.6182 23.1947 29.8562 23.974 29.8562 25.01V29H28.3862V25.164C28.3862 23.82 27.8495 23.148 26.7762 23.148C26.2162 23.148 25.7495 23.344 25.3762 23.736C25.0122 24.128 24.8302 24.688 24.8302 25.416V29H23.3462ZM34.852 29.168C34.1707 29.168 33.564 29.0187 33.032 28.72C32.5093 28.412 32.0987 27.9873 31.8 27.446C31.5013 26.9047 31.352 26.2747 31.352 25.556C31.352 24.828 31.4967 24.1887 31.786 23.638C32.0847 23.0873 32.4953 22.658 33.018 22.35C33.55 22.042 34.166 21.888 34.866 21.888C35.5473 21.888 36.14 22.042 36.644 22.35C37.148 22.6487 37.54 23.05 37.82 23.554C38.1 24.058 38.24 24.6133 38.24 25.22C38.24 25.3133 38.2353 25.416 38.226 25.528C38.226 25.6307 38.2213 25.7473 38.212 25.878H32.808C32.8547 26.55 33.074 27.0633 33.466 27.418C33.8673 27.7633 34.3293 27.936 34.852 27.936C35.272 27.936 35.622 27.8427 35.902 27.656C36.1913 27.46 36.406 27.1987 36.546 26.872H38.03C37.8433 27.5253 37.47 28.0713 36.91 28.51C36.3593 28.9487 35.6733 29.168 34.852 29.168ZM34.852 23.106C34.3573 23.106 33.9187 23.2553 33.536 23.554C33.1533 23.8433 32.92 24.282 32.836 24.87H36.756C36.728 24.3287 36.5367 23.8993 36.182 23.582C35.8273 23.2647 35.384 23.106 34.852 23.106ZM44.1471 20.74C43.8671 20.74 43.6338 20.656 43.4471 20.488C43.2698 20.3107 43.1811 20.0913 43.1811 19.83C43.1811 19.5687 43.2698 19.354 43.4471 19.186C43.6338 19.0087 43.8671 18.92 44.1471 18.92C44.4271 18.92 44.6558 19.0087 44.8331 19.186C45.0198 19.354 45.1131 19.5687 45.1131 19.83C45.1131 20.0913 45.0198 20.3107 44.8331 20.488C44.6558 20.656 44.4271 20.74 44.1471 20.74ZM43.4051 29V22.056H44.8891V29H43.4051ZM46.8482 29V22.056H48.1642L48.2762 23.274C48.4908 22.8447 48.8035 22.5087 49.2142 22.266C49.6342 22.014 50.1148 21.888 50.6562 21.888C51.4962 21.888 52.1542 22.1493 52.6302 22.672C53.1155 23.1947 53.3582 23.974 53.3582 25.01V29H51.8882V25.164C51.8882 23.82 51.3375 23.148 50.2362 23.148C49.6855 23.148 49.2282 23.344 48.8642 23.736C48.5095 24.128 48.3322 24.688 48.3322 25.416V29H46.8482ZM58.018 29C57.3366 29 56.7953 28.8367 56.394 28.51C55.9926 28.174 55.792 27.5813 55.792 26.732V23.302H54.602V22.056H55.792L55.974 20.292H57.276V22.056H59.236V23.302H57.276V26.732C57.276 27.1147 57.3553 27.3807 57.514 27.53C57.682 27.67 57.9666 27.74 58.368 27.74H59.166V29H58.018ZM63.8364 29.168C63.1551 29.168 62.5484 29.0187 62.0164 28.72C61.4937 28.412 61.0831 27.9873 60.7844 27.446C60.4857 26.9047 60.3364 26.2747 60.3364 25.556C60.3364 24.828 60.4811 24.1887 60.7704 23.638C61.0691 23.0873 61.4797 22.658 62.0024 22.35C62.5344 22.042 63.1504 21.888 63.8504 21.888C64.5317 21.888 65.1244 22.042 65.6284 22.35C66.1324 22.6487 66.5244 23.05 66.8044 23.554C67.0844 24.058 67.2244 24.6133 67.2244 25.22C67.2244 25.3133 67.2197 25.416 67.2104 25.528C67.2104 25.6307 67.2057 25.7473 67.1964 25.878H61.7924C61.8391 26.55 62.0584 27.0633 62.4504 27.418C62.8517 27.7633 63.3137 27.936 63.8364 27.936C64.2564 27.936 64.6064 27.8427 64.8864 27.656C65.1757 27.46 65.3904 27.1987 65.5304 26.872H67.0144C66.8277 27.5253 66.4544 28.0713 65.8944 28.51C65.3437 28.9487 64.6577 29.168 63.8364 29.168ZM63.8364 23.106C63.3417 23.106 62.9031 23.2553 62.5204 23.554C62.1377 23.8433 61.9044 24.282 61.8204 24.87H65.7404C65.7124 24.3287 65.5211 23.8993 65.1664 23.582C64.8117 23.2647 64.3684 23.106 63.8364 23.106ZM68.7642 29V22.056H70.0942L70.2202 23.372C70.4628 22.9147 70.7988 22.5553 71.2282 22.294C71.6668 22.0233 72.1942 21.888 72.8102 21.888V23.442H72.4042C71.9935 23.442 71.6248 23.512 71.2982 23.652C70.9808 23.7827 70.7242 24.0113 70.5282 24.338C70.3415 24.6553 70.2482 25.0987 70.2482 25.668V29H68.7642ZM74.0825 29V22.056H75.3985L75.5105 23.274C75.7252 22.8447 76.0379 22.5087 76.4485 22.266C76.8685 22.014 77.3492 21.888 77.8905 21.888C78.7305 21.888 79.3885 22.1493 79.8645 22.672C80.3499 23.1947 80.5925 23.974 80.5925 25.01V29H79.1225V25.164C79.1225 23.82 78.5719 23.148 77.4705 23.148C76.9199 23.148 76.4625 23.344 76.0985 23.736C75.7439 24.128 75.5665 24.688 75.5665 25.416V29H74.0825ZM84.6923 29.168C84.1043 29.168 83.619 29.07 83.2363 28.874C82.8537 28.678 82.569 28.4213 82.3823 28.104C82.1957 27.7773 82.1023 27.4227 82.1023 27.04C82.1023 26.368 82.3637 25.836 82.8863 25.444C83.409 25.052 84.1557 24.856 85.1263 24.856H86.9463V24.73C86.9463 24.1887 86.797 23.7827 86.4983 23.512C86.209 23.2413 85.831 23.106 85.3643 23.106C84.9537 23.106 84.5943 23.2087 84.2863 23.414C83.9877 23.61 83.8057 23.904 83.7403 24.296H82.2563C82.303 23.792 82.471 23.3627 82.7603 23.008C83.059 22.644 83.4323 22.3687 83.8803 22.182C84.3377 21.986 84.837 21.888 85.3783 21.888C86.349 21.888 87.1003 22.1447 87.6323 22.658C88.1643 23.162 88.4303 23.8527 88.4303 24.73V29H87.1423L87.0163 27.81C86.8203 28.1927 86.5357 28.5147 86.1623 28.776C85.789 29.0373 85.299 29.168 84.6923 29.168ZM84.9863 27.964C85.3877 27.964 85.7237 27.8707 85.9943 27.684C86.2743 27.488 86.489 27.2313 86.6383 26.914C86.797 26.5967 86.895 26.2467 86.9323 25.864H85.2803C84.6923 25.864 84.2723 25.9667 84.0203 26.172C83.7777 26.3773 83.6563 26.634 83.6563 26.942C83.6563 27.2593 83.773 27.5113 84.0063 27.698C84.249 27.8753 84.5757 27.964 84.9863 27.964ZM92.9359 29C92.2546 29 91.7133 28.8367 91.3119 28.51C90.9106 28.174 90.7099 27.5813 90.7099 26.732V23.302H89.5199V22.056H90.7099L90.8919 20.292H92.1939V22.056H94.1539V23.302H92.1939V26.732C92.1939 27.1147 92.2733 27.3807 92.4319 27.53C92.5999 27.67 92.8846 27.74 93.2859 27.74H94.0839V29H92.9359ZM96.5241 20.74C96.2441 20.74 96.0108 20.656 95.8241 20.488C95.6468 20.3107 95.5581 20.0913 95.5581 19.83C95.5581 19.5687 95.6468 19.354 95.8241 19.186C96.0108 19.0087 96.2441 18.92 96.5241 18.92C96.8041 18.92 97.0328 19.0087 97.2101 19.186C97.3968 19.354 97.4901 19.5687 97.4901 19.83C97.4901 20.0913 97.3968 20.3107 97.2101 20.488C97.0328 20.656 96.8041 20.74 96.5241 20.74ZM95.7821 29V22.056H97.2661V29H95.7821ZM102.473 29.168C101.81 29.168 101.213 29.0187 100.681 28.72C100.158 28.412 99.7431 27.9873 99.4351 27.446C99.1271 26.8953 98.9731 26.256 98.9731 25.528C98.9731 24.8 99.1271 24.1653 99.4351 23.624C99.7524 23.0733 100.177 22.6487 100.709 22.35C101.241 22.042 101.834 21.888 102.487 21.888C103.15 21.888 103.742 22.042 104.265 22.35C104.797 22.6487 105.217 23.0733 105.525 23.624C105.842 24.1653 106.001 24.8 106.001 25.528C106.001 26.256 105.842 26.8953 105.525 27.446C105.217 27.9873 104.797 28.412 104.265 28.72C103.733 29.0187 103.136 29.168 102.473 29.168ZM102.473 27.894C102.828 27.894 103.154 27.8053 103.453 27.628C103.761 27.4507 104.008 27.1893 104.195 26.844C104.382 26.4893 104.475 26.0507 104.475 25.528C104.475 25.0053 104.382 24.5713 104.195 24.226C104.018 23.8713 103.775 23.6053 103.467 23.428C103.168 23.2507 102.842 23.162 102.487 23.162C102.132 23.162 101.801 23.2507 101.493 23.428C101.194 23.6053 100.952 23.8713 100.765 24.226C100.578 24.5713 100.485 25.0053 100.485 25.528C100.485 26.0507 100.578 26.4893 100.765 26.844C100.952 27.1893 101.194 27.4507 101.493 27.628C101.792 27.8053 102.118 27.894 102.473 27.894ZM107.606 29V22.056H108.922L109.034 23.274C109.249 22.8447 109.561 22.5087 109.972 22.266C110.392 22.014 110.873 21.888 111.414 21.888C112.254 21.888 112.912 22.1493 113.388 22.672C113.873 23.1947 114.116 23.974 114.116 25.01V29H112.646V25.164C112.646 23.82 112.095 23.148 110.994 23.148C110.443 23.148 109.986 23.344 109.622 23.736C109.267 24.128 109.09 24.688 109.09 25.416V29H107.606ZM118.216 29.168C117.628 29.168 117.142 29.07 116.76 28.874C116.377 28.678 116.092 28.4213 115.906 28.104C115.719 27.7773 115.626 27.4227 115.626 27.04C115.626 26.368 115.887 25.836 116.41 25.444C116.932 25.052 117.679 24.856 118.65 24.856H120.47V24.73C120.47 24.1887 120.32 23.7827 120.022 23.512C119.732 23.2413 119.354 23.106 118.888 23.106C118.477 23.106 118.118 23.2087 117.81 23.414C117.511 23.61 117.329 23.904 117.264 24.296H115.78C115.826 23.792 115.994 23.3627 116.284 23.008C116.582 22.644 116.956 22.3687 117.404 22.182C117.861 21.986 118.36 21.888 118.902 21.888C119.872 21.888 120.624 22.1447 121.156 22.658C121.688 23.162 121.954 23.8527 121.954 24.73V29H120.666L120.54 27.81C120.344 28.1927 120.059 28.5147 119.686 28.776C119.312 29.0373 118.822 29.168 118.216 29.168ZM118.51 27.964C118.911 27.964 119.247 27.8707 119.518 27.684C119.798 27.488 120.012 27.2313 120.162 26.914C120.32 26.5967 120.418 26.2467 120.456 25.864H118.804C118.216 25.864 117.796 25.9667 117.544 26.172C117.301 26.3773 117.18 26.634 117.18 26.942C117.18 27.2593 117.296 27.5113 117.53 27.698C117.772 27.8753 118.099 27.964 118.51 27.964ZM123.684 29V18.92H125.168V29H123.684ZM132.927 29.168C132.339 29.168 131.853 29.07 131.471 28.874C131.088 28.678 130.803 28.4213 130.617 28.104C130.43 27.7773 130.337 27.4227 130.337 27.04C130.337 26.368 130.598 25.836 131.121 25.444C131.643 25.052 132.39 24.856 133.361 24.856H135.181V24.73C135.181 24.1887 135.031 23.7827 134.733 23.512C134.443 23.2413 134.065 23.106 133.599 23.106C133.188 23.106 132.829 23.2087 132.521 23.414C132.222 23.61 132.04 23.904 131.975 24.296H130.491C130.537 23.792 130.705 23.3627 130.995 23.008C131.293 22.644 131.667 22.3687 132.115 22.182C132.572 21.986 133.071 21.888 133.613 21.888C134.583 21.888 135.335 22.1447 135.867 22.658C136.399 23.162 136.665 23.8527 136.665 24.73V29H135.377L135.251 27.81C135.055 28.1927 134.77 28.5147 134.397 28.776C134.023 29.0373 133.533 29.168 132.927 29.168ZM133.221 27.964C133.622 27.964 133.958 27.8707 134.229 27.684C134.509 27.488 134.723 27.2313 134.873 26.914C135.031 26.5967 135.129 26.2467 135.167 25.864H133.515C132.927 25.864 132.507 25.9667 132.255 26.172C132.012 26.3773 131.891 26.634 131.891 26.942C131.891 27.2593 132.007 27.5113 132.241 27.698C132.483 27.8753 132.81 27.964 133.221 27.964ZM141.167 29.168C140.29 29.168 139.566 28.9533 138.997 28.524C138.428 28.0947 138.101 27.5253 138.017 26.816H139.515C139.59 27.1333 139.767 27.4087 140.047 27.642C140.327 27.866 140.696 27.978 141.153 27.978C141.601 27.978 141.928 27.8847 142.133 27.698C142.338 27.5113 142.441 27.2967 142.441 27.054C142.441 26.6993 142.296 26.4613 142.007 26.34C141.727 26.2093 141.335 26.0927 140.831 25.99C140.439 25.906 140.047 25.794 139.655 25.654C139.272 25.514 138.95 25.318 138.689 25.066C138.437 24.8047 138.311 24.4547 138.311 24.016C138.311 23.4093 138.544 22.9053 139.011 22.504C139.478 22.0933 140.131 21.888 140.971 21.888C141.746 21.888 142.371 22.0747 142.847 22.448C143.332 22.8213 143.617 23.3487 143.701 24.03H142.273C142.226 23.7313 142.086 23.498 141.853 23.33C141.629 23.162 141.326 23.078 140.943 23.078C140.57 23.078 140.28 23.1573 140.075 23.316C139.87 23.4653 139.767 23.6613 139.767 23.904C139.767 24.1467 139.907 24.338 140.187 24.478C140.476 24.618 140.854 24.744 141.321 24.856C141.788 24.9587 142.217 25.08 142.609 25.22C143.01 25.3507 143.332 25.5467 143.575 25.808C143.818 26.0693 143.939 26.452 143.939 26.956C143.948 27.5907 143.701 28.118 143.197 28.538C142.702 28.958 142.026 29.168 141.167 29.168ZM148.331 29.168C147.454 29.168 146.73 28.9533 146.161 28.524C145.592 28.0947 145.265 27.5253 145.181 26.816H146.679C146.754 27.1333 146.931 27.4087 147.211 27.642C147.491 27.866 147.86 27.978 148.317 27.978C148.765 27.978 149.092 27.8847 149.297 27.698C149.502 27.5113 149.605 27.2967 149.605 27.054C149.605 26.6993 149.46 26.4613 149.171 26.34C148.891 26.2093 148.499 26.0927 147.995 25.99C147.603 25.906 147.211 25.794 146.819 25.654C146.436 25.514 146.114 25.318 145.853 25.066C145.601 24.8047 145.475 24.4547 145.475 24.016C145.475 23.4093 145.708 22.9053 146.175 22.504C146.642 22.0933 147.295 21.888 148.135 21.888C148.91 21.888 149.535 22.0747 150.011 22.448C150.496 22.8213 150.781 23.3487 150.865 24.03H149.437C149.39 23.7313 149.25 23.498 149.017 23.33C148.793 23.162 148.49 23.078 148.107 23.078C147.734 23.078 147.444 23.1573 147.239 23.316C147.034 23.4653 146.931 23.6613 146.931 23.904C146.931 24.1467 147.071 24.338 147.351 24.478C147.64 24.618 148.018 24.744 148.485 24.856C148.952 24.9587 149.381 25.08 149.773 25.22C150.174 25.3507 150.496 25.5467 150.739 25.808C150.982 26.0693 151.103 26.452 151.103 26.956C151.112 27.5907 150.865 28.118 150.361 28.538C149.866 28.958 149.19 29.168 148.331 29.168ZM155.075 29.168C154.487 29.168 154.002 29.07 153.619 28.874C153.236 28.678 152.952 28.4213 152.765 28.104C152.578 27.7773 152.485 27.4227 152.485 27.04C152.485 26.368 152.746 25.836 153.269 25.444C153.792 25.052 154.538 24.856 155.509 24.856H157.329V24.73C157.329 24.1887 157.18 23.7827 156.881 23.512C156.592 23.2413 156.214 23.106 155.747 23.106C155.336 23.106 154.977 23.2087 154.669 23.414C154.37 23.61 154.188 23.904 154.123 24.296H152.639C152.686 23.792 152.854 23.3627 153.143 23.008C153.442 22.644 153.815 22.3687 154.263 22.182C154.72 21.986 155.22 21.888 155.761 21.888C156.732 21.888 157.483 22.1447 158.015 22.658C158.547 23.162 158.813 23.8527 158.813 24.73V29H157.525L157.399 27.81C157.203 28.1927 156.918 28.5147 156.545 28.776C156.172 29.0373 155.682 29.168 155.075 29.168ZM155.369 27.964C155.77 27.964 156.106 27.8707 156.377 27.684C156.657 27.488 156.872 27.2313 157.021 26.914C157.18 26.5967 157.278 26.2467 157.315 25.864H155.663C155.075 25.864 154.655 25.9667 154.403 26.172C154.16 26.3773 154.039 26.634 154.039 26.942C154.039 27.2593 154.156 27.5113 154.389 27.698C154.632 27.8753 154.958 27.964 155.369 27.964ZM163.315 29.168C162.438 29.168 161.715 28.9533 161.145 28.524C160.576 28.0947 160.249 27.5253 160.165 26.816H161.663C161.738 27.1333 161.915 27.4087 162.195 27.642C162.475 27.866 162.844 27.978 163.301 27.978C163.749 27.978 164.076 27.8847 164.281 27.698C164.487 27.5113 164.589 27.2967 164.589 27.054C164.589 26.6993 164.445 26.4613 164.155 26.34C163.875 26.2093 163.483 26.0927 162.979 25.99C162.587 25.906 162.195 25.794 161.803 25.654C161.421 25.514 161.099 25.318 160.837 25.066C160.585 24.8047 160.459 24.4547 160.459 24.016C160.459 23.4093 160.693 22.9053 161.159 22.504C161.626 22.0933 162.279 21.888 163.119 21.888C163.894 21.888 164.519 22.0747 164.995 22.448C165.481 22.8213 165.765 23.3487 165.849 24.03H164.421C164.375 23.7313 164.235 23.498 164.001 23.33C163.777 23.162 163.474 23.078 163.091 23.078C162.718 23.078 162.429 23.1573 162.223 23.316C162.018 23.4653 161.915 23.6613 161.915 23.904C161.915 24.1467 162.055 24.338 162.335 24.478C162.625 24.618 163.003 24.744 163.469 24.856C163.936 24.9587 164.365 25.08 164.757 25.22C165.159 25.3507 165.481 25.5467 165.723 25.808C165.966 26.0693 166.087 26.452 166.087 26.956C166.097 27.5907 165.849 28.118 165.345 28.538C164.851 28.958 164.174 29.168 163.315 29.168ZM170.48 29.168C169.602 29.168 168.879 28.9533 168.31 28.524C167.74 28.0947 167.414 27.5253 167.33 26.816H168.828C168.902 27.1333 169.08 27.4087 169.36 27.642C169.64 27.866 170.008 27.978 170.466 27.978C170.914 27.978 171.24 27.8847 171.446 27.698C171.651 27.5113 171.754 27.2967 171.754 27.054C171.754 26.6993 171.609 26.4613 171.32 26.34C171.04 26.2093 170.648 26.0927 170.144 25.99C169.752 25.906 169.36 25.794 168.968 25.654C168.585 25.514 168.263 25.318 168.002 25.066C167.75 24.8047 167.624 24.4547 167.624 24.016C167.624 23.4093 167.857 22.9053 168.324 22.504C168.79 22.0933 169.444 21.888 170.284 21.888C171.058 21.888 171.684 22.0747 172.16 22.448C172.645 22.8213 172.93 23.3487 173.014 24.03H171.586C171.539 23.7313 171.399 23.498 171.166 23.33C170.942 23.162 170.638 23.078 170.256 23.078C169.882 23.078 169.593 23.1573 169.388 23.316C169.182 23.4653 169.08 23.6613 169.08 23.904C169.08 24.1467 169.22 24.338 169.5 24.478C169.789 24.618 170.167 24.744 170.634 24.856C171.1 24.9587 171.53 25.08 171.922 25.22C172.323 25.3507 172.645 25.5467 172.888 25.808C173.13 26.0693 173.252 26.452 173.252 26.956C173.261 27.5907 173.014 28.118 172.51 28.538C172.015 28.958 171.338 29.168 170.48 29.168ZM175.712 20.74C175.432 20.74 175.198 20.656 175.012 20.488C174.834 20.3107 174.746 20.0913 174.746 19.83C174.746 19.5687 174.834 19.354 175.012 19.186C175.198 19.0087 175.432 18.92 175.712 18.92C175.992 18.92 176.22 19.0087 176.398 19.186C176.584 19.354 176.678 19.5687 176.678 19.83C176.678 20.0913 176.584 20.3107 176.398 20.488C176.22 20.656 175.992 20.74 175.712 20.74ZM174.97 29V22.056H176.454V29H174.97ZM178.413 29V22.056H179.729L179.841 23.274C180.055 22.8447 180.368 22.5087 180.779 22.266C181.199 22.014 181.679 21.888 182.221 21.888C183.061 21.888 183.719 22.1493 184.195 22.672C184.68 23.1947 184.923 23.974 184.923 25.01V29H183.453V25.164C183.453 23.82 182.902 23.148 181.801 23.148C181.25 23.148 180.793 23.344 180.429 23.736C180.074 24.128 179.897 24.688 179.897 25.416V29H178.413ZM189.442 29.168C188.565 29.168 187.842 28.9533 187.272 28.524C186.703 28.0947 186.376 27.5253 186.292 26.816H187.79C187.865 27.1333 188.042 27.4087 188.322 27.642C188.602 27.866 188.971 27.978 189.428 27.978C189.876 27.978 190.203 27.8847 190.408 27.698C190.614 27.5113 190.716 27.2967 190.716 27.054C190.716 26.6993 190.572 26.4613 190.282 26.34C190.002 26.2093 189.61 26.0927 189.106 25.99C188.714 25.906 188.322 25.794 187.93 25.654C187.548 25.514 187.226 25.318 186.964 25.066C186.712 24.8047 186.586 24.4547 186.586 24.016C186.586 23.4093 186.82 22.9053 187.286 22.504C187.753 22.0933 188.406 21.888 189.246 21.888C190.021 21.888 190.646 22.0747 191.122 22.448C191.608 22.8213 191.892 23.3487 191.976 24.03H190.548C190.502 23.7313 190.362 23.498 190.128 23.33C189.904 23.162 189.601 23.078 189.218 23.078C188.845 23.078 188.556 23.1573 188.35 23.316C188.145 23.4653 188.042 23.6613 188.042 23.904C188.042 24.1467 188.182 24.338 188.462 24.478C188.752 24.618 189.13 24.744 189.596 24.856C190.063 24.9587 190.492 25.08 190.884 25.22C191.286 25.3507 191.608 25.5467 191.85 25.808C192.093 26.0693 192.214 26.452 192.214 26.956C192.224 27.5907 191.976 28.118 191.472 28.538C190.978 28.958 190.301 29.168 189.442 29.168ZM193.596 21.272L193.428 18.43H194.786L194.618 21.272H193.596ZM202.624 26.872C202.26 26.872 201.924 26.83 201.616 26.746L201.014 27.334C201.116 27.3993 201.242 27.4553 201.392 27.502C201.541 27.5487 201.751 27.5907 202.022 27.628C202.292 27.6653 202.661 27.7027 203.128 27.74C204.052 27.824 204.719 28.048 205.13 28.412C205.54 28.7667 205.746 29.2427 205.746 29.84C205.746 30.2507 205.634 30.638 205.41 31.002C205.195 31.3753 204.854 31.674 204.388 31.898C203.93 32.1313 203.342 32.248 202.624 32.248C201.653 32.248 200.864 32.0613 200.258 31.688C199.66 31.324 199.362 30.7687 199.362 30.022C199.362 29.7327 199.436 29.4433 199.586 29.154C199.744 28.874 199.992 28.608 200.328 28.356C200.132 28.272 199.959 28.1833 199.81 28.09C199.67 27.9873 199.544 27.8847 199.432 27.782V27.446L200.636 26.214C200.094 25.7473 199.824 25.136 199.824 24.38C199.824 23.9227 199.931 23.5073 200.146 23.134C200.37 22.7513 200.692 22.448 201.112 22.224C201.532 22 202.036 21.888 202.624 21.888C203.016 21.888 203.38 21.944 203.716 22.056H206.306V23.036L205.074 23.106C205.298 23.4887 205.41 23.9133 205.41 24.38C205.41 24.8467 205.298 25.2667 205.074 25.64C204.859 26.0133 204.542 26.312 204.122 26.536C203.711 26.76 203.212 26.872 202.624 26.872ZM202.624 25.71C203.053 25.71 203.398 25.598 203.66 25.374C203.93 25.1407 204.066 24.814 204.066 24.394C204.066 23.9647 203.93 23.638 203.66 23.414C203.398 23.19 203.053 23.078 202.624 23.078C202.185 23.078 201.83 23.19 201.56 23.414C201.298 23.638 201.168 23.9647 201.168 24.394C201.168 24.814 201.298 25.1407 201.56 25.374C201.83 25.598 202.185 25.71 202.624 25.71ZM200.762 29.882C200.762 30.2833 200.939 30.582 201.294 30.778C201.648 30.9833 202.092 31.086 202.624 31.086C203.137 31.086 203.552 30.974 203.87 30.75C204.187 30.5353 204.346 30.246 204.346 29.882C204.346 29.6113 204.238 29.378 204.024 29.182C203.809 28.9953 203.403 28.8787 202.806 28.832C202.358 28.804 201.961 28.762 201.616 28.706C201.289 28.8833 201.065 29.0747 200.944 29.28C200.822 29.4853 200.762 29.686 200.762 29.882ZM210.191 29.168C209.351 29.168 208.689 28.9067 208.203 28.384C207.727 27.8613 207.489 27.082 207.489 26.046V22.056H208.973V25.892C208.973 27.236 209.524 27.908 210.625 27.908C211.176 27.908 211.629 27.712 211.983 27.32C212.338 26.928 212.515 26.368 212.515 25.64V22.056H213.999V29H212.683L212.571 27.782C212.357 28.2113 212.039 28.552 211.619 28.804C211.209 29.0467 210.733 29.168 210.191 29.168ZM216.727 20.74C216.447 20.74 216.214 20.656 216.027 20.488C215.85 20.3107 215.761 20.0913 215.761 19.83C215.761 19.5687 215.85 19.354 216.027 19.186C216.214 19.0087 216.447 18.92 216.727 18.92C217.007 18.92 217.236 19.0087 217.413 19.186C217.6 19.354 217.693 19.5687 217.693 19.83C217.693 20.0913 217.6 20.3107 217.413 20.488C217.236 20.656 217.007 20.74 216.727 20.74ZM215.985 29V22.056H217.469V29H215.985ZM219.428 29V18.92H220.912V29H219.428ZM225.956 29.168C225.284 29.168 224.691 29.0093 224.178 28.692C223.664 28.3747 223.263 27.9407 222.974 27.39C222.684 26.8393 222.54 26.214 222.54 25.514C222.54 24.814 222.684 24.1933 222.974 23.652C223.263 23.1013 223.664 22.672 224.178 22.364C224.7 22.0467 225.298 21.888 225.97 21.888C226.52 21.888 227.001 21.9953 227.412 22.21C227.832 22.4247 228.158 22.728 228.392 23.12V18.92H229.876V29H228.546L228.392 27.922C228.168 28.2487 227.86 28.538 227.468 28.79C227.076 29.042 226.572 29.168 225.956 29.168ZM226.222 27.88C226.856 27.88 227.374 27.6607 227.776 27.222C228.186 26.7833 228.392 26.2187 228.392 25.528C228.392 24.828 228.186 24.2633 227.776 23.834C227.374 23.3953 226.856 23.176 226.222 23.176C225.587 23.176 225.064 23.3953 224.654 23.834C224.243 24.2633 224.038 24.828 224.038 25.528C224.038 25.9853 224.131 26.3913 224.318 26.746C224.504 27.1007 224.761 27.3807 225.088 27.586C225.424 27.782 225.802 27.88 226.222 27.88ZM230.921 30.652L231.733 27.348H233.203L231.915 30.652H230.921ZM240.483 29.168C239.895 29.168 239.41 29.07 239.027 28.874C238.645 28.678 238.36 28.4213 238.173 28.104C237.987 27.7773 237.893 27.4227 237.893 27.04C237.893 26.368 238.155 25.836 238.677 25.444C239.2 25.052 239.947 24.856 240.917 24.856H242.737V24.73C242.737 24.1887 242.588 23.7827 242.289 23.512C242 23.2413 241.622 23.106 241.155 23.106C240.745 23.106 240.385 23.2087 240.077 23.414C239.779 23.61 239.597 23.904 239.531 24.296H238.047C238.094 23.792 238.262 23.3627 238.551 23.008C238.85 22.644 239.223 22.3687 239.671 22.182C240.129 21.986 240.628 21.888 241.169 21.888C242.14 21.888 242.891 22.1447 243.423 22.658C243.955 23.162 244.221 23.8527 244.221 24.73V29H242.933L242.807 27.81C242.611 28.1927 242.327 28.5147 241.953 28.776C241.58 29.0373 241.09 29.168 240.483 29.168ZM240.777 27.964C241.179 27.964 241.515 27.8707 241.785 27.684C242.065 27.488 242.28 27.2313 242.429 26.914C242.588 26.5967 242.686 26.2467 242.723 25.864H241.071C240.483 25.864 240.063 25.9667 239.811 26.172C239.569 26.3773 239.447 26.634 239.447 26.942C239.447 27.2593 239.564 27.5113 239.797 27.698C240.04 27.8753 240.367 27.964 240.777 27.964ZM245.952 29V22.056H247.268L247.38 23.274C247.594 22.8447 247.907 22.5087 248.318 22.266C248.738 22.014 249.218 21.888 249.76 21.888C250.6 21.888 251.258 22.1493 251.734 22.672C252.219 23.1947 252.462 23.974 252.462 25.01V29H250.992V25.164C250.992 23.82 250.441 23.148 249.34 23.148C248.789 23.148 248.332 23.344 247.968 23.736C247.613 24.128 247.436 24.688 247.436 25.416V29H245.952ZM257.373 29.168C256.701 29.168 256.109 29.0093 255.595 28.692C255.082 28.3747 254.681 27.9407 254.391 27.39C254.102 26.8393 253.957 26.214 253.957 25.514C253.957 24.814 254.102 24.1933 254.391 23.652C254.681 23.1013 255.082 22.672 255.595 22.364C256.118 22.0467 256.715 21.888 257.387 21.888C257.938 21.888 258.419 21.9953 258.829 22.21C259.249 22.4247 259.576 22.728 259.809 23.12V18.92H261.293V29H259.963L259.809 27.922C259.585 28.2487 259.277 28.538 258.885 28.79C258.493 29.042 257.989 29.168 257.373 29.168ZM257.639 27.88C258.274 27.88 258.792 27.6607 259.193 27.222C259.604 26.7833 259.809 26.2187 259.809 25.528C259.809 24.828 259.604 24.2633 259.193 23.834C258.792 23.3953 258.274 23.176 257.639 23.176C257.005 23.176 256.482 23.3953 256.071 23.834C255.661 24.2633 255.455 24.828 255.455 25.528C255.455 25.9853 255.549 26.3913 255.735 26.746C255.922 27.1007 256.179 27.3807 256.505 27.586C256.841 27.782 257.219 27.88 257.639 27.88ZM268.078 29L266.034 22.056H267.518L268.862 27.292L270.374 22.056H272.026L273.538 27.292L274.882 22.056H276.366L274.322 29H272.796L271.2 23.54L269.604 29H268.078ZM278.428 20.74C278.148 20.74 277.915 20.656 277.728 20.488C277.551 20.3107 277.462 20.0913 277.462 19.83C277.462 19.5687 277.551 19.354 277.728 19.186C277.915 19.0087 278.148 18.92 278.428 18.92C278.708 18.92 278.937 19.0087 279.114 19.186C279.301 19.354 279.394 19.5687 279.394 19.83C279.394 20.0913 279.301 20.3107 279.114 20.488C278.937 20.656 278.708 20.74 278.428 20.74ZM277.686 29V22.056H279.17V29H277.686ZM284.041 29C283.36 29 282.819 28.8367 282.417 28.51C282.016 28.174 281.815 27.5813 281.815 26.732V23.302H280.625V22.056H281.815L281.997 20.292H283.299V22.056H285.259V23.302H283.299V26.732C283.299 27.1147 283.379 27.3807 283.537 27.53C283.705 27.67 283.99 27.74 284.391 27.74H285.189V29H284.041ZM286.79 29V18.92H288.274V23.176C288.507 22.7747 288.829 22.462 289.24 22.238C289.66 22.0047 290.122 21.888 290.626 21.888C291.456 21.888 292.11 22.1493 292.586 22.672C293.062 23.1947 293.3 23.974 293.3 25.01V29H291.83V25.164C291.83 23.82 291.293 23.148 290.22 23.148C289.66 23.148 289.193 23.344 288.82 23.736C288.456 24.128 288.274 24.688 288.274 25.416V29H286.79ZM3.29 47.168C2.702 47.168 2.21667 47.07 1.834 46.874C1.45133 46.678 1.16667 46.4213 0.98 46.104C0.793333 45.7773 0.7 45.4227 0.7 45.04C0.7 44.368 0.961333 43.836 1.484 43.444C2.00667 43.052 2.75333 42.856 3.724 42.856H5.544V42.73C5.544 42.1887 5.39467 41.7827 5.096 41.512C4.80667 41.2413 4.42867 41.106 3.962 41.106C3.55133 41.106 3.192 41.2087 2.884 41.414C2.58533 41.61 2.40333 41.904 2.338 42.296H0.854C0.900667 41.792 1.06867 41.3627 1.358 41.008C1.65667 40.644 2.03 40.3687 2.478 40.182C2.93533 39.986 3.43467 39.888 3.976 39.888C4.94667 39.888 5.698 40.1447 6.23 40.658C6.762 41.162 7.028 41.8527 7.028 42.73V47H5.74L5.614 45.81C5.418 46.1927 5.13333 46.5147 4.76 46.776C4.38667 47.0373 3.89667 47.168 3.29 47.168ZM3.584 45.964C3.98533 45.964 4.32133 45.8707 4.592 45.684C4.872 45.488 5.08667 45.2313 5.236 44.914C5.39467 44.5967 5.49267 44.2467 5.53 43.864H3.878C3.29 43.864 2.87 43.9667 2.618 44.172C2.37533 44.3773 2.254 44.634 2.254 44.942C2.254 45.2593 2.37067 45.5113 2.604 45.698C2.84667 45.8753 3.17333 45.964 3.584 45.964ZM14.9877 48.218V47.14C14.073 47.0373 13.3403 46.7153 12.7897 46.174C12.239 45.6327 11.959 44.9233 11.9497 44.046H13.5177C13.527 44.4847 13.6577 44.872 13.9097 45.208C14.1617 45.5347 14.521 45.754 14.9877 45.866V42.492C14.913 42.4733 14.8337 42.45 14.7497 42.422C14.675 42.394 14.5957 42.366 14.5117 42.338C13.7557 42.086 13.1863 41.7593 12.8037 41.358C12.4303 40.9567 12.2437 40.4293 12.2437 39.776C12.2343 39.0107 12.4817 38.3853 12.9857 37.9C13.4897 37.4147 14.157 37.13 14.9877 37.046V35.926H15.9397V37.06C16.7517 37.1533 17.405 37.4473 17.8997 37.942C18.3943 38.4367 18.6463 39.0573 18.6557 39.804H17.0877C17.0783 39.496 16.9757 39.2067 16.7797 38.936C16.593 38.656 16.313 38.4647 15.9397 38.362V41.358C16.0143 41.386 16.089 41.414 16.1637 41.442C16.2383 41.4607 16.313 41.484 16.3877 41.512C16.873 41.6707 17.307 41.862 17.6897 42.086C18.0723 42.31 18.3757 42.604 18.5997 42.968C18.833 43.332 18.9497 43.794 18.9497 44.354C18.9497 44.8207 18.8377 45.2593 18.6137 45.67C18.3897 46.0713 18.0537 46.4073 17.6057 46.678C17.1577 46.9487 16.6023 47.1073 15.9397 47.154V48.218H14.9877ZM13.7837 39.65C13.7837 40.0233 13.891 40.3127 14.1057 40.518C14.3203 40.714 14.6143 40.8867 14.9877 41.036V38.32C14.633 38.3853 14.3437 38.5347 14.1197 38.768C13.8957 38.992 13.7837 39.286 13.7837 39.65ZM17.3817 44.452C17.3817 43.9947 17.2463 43.6493 16.9757 43.416C16.705 43.1733 16.3597 42.9727 15.9397 42.814V45.894C16.397 45.838 16.7517 45.6793 17.0037 45.418C17.2557 45.1567 17.3817 44.8347 17.3817 44.452ZM21.5801 47V38.88L19.9981 39.244V38.152L22.1681 37.2H23.1201V47H21.5801ZM29.5772 47V45.04H24.6632V43.864L29.3392 37.2H31.0472V43.752H32.4192V45.04H31.0472V47H29.5772ZM26.2732 43.752H29.6612V38.838L26.2732 43.752ZM37.3052 47V40.056H38.6212L38.7472 41.036C38.9712 40.6813 39.2652 40.4013 39.6292 40.196C40.0025 39.9907 40.4319 39.888 40.9172 39.888C42.0185 39.888 42.7839 40.322 43.2132 41.19C43.4652 40.7887 43.8012 40.4713 44.2212 40.238C44.6505 40.0047 45.1125 39.888 45.6072 39.888C46.4752 39.888 47.1565 40.1493 47.6512 40.672C48.1459 41.1947 48.3932 41.974 48.3932 43.01V47H46.9092V43.164C46.9092 41.82 46.3959 41.148 45.3692 41.148C44.8465 41.148 44.4172 41.344 44.0812 41.736C43.7545 42.128 43.5912 42.688 43.5912 43.416V47H42.1072V43.164C42.1072 41.82 41.5892 41.148 40.5532 41.148C40.0399 41.148 39.6152 41.344 39.2792 41.736C38.9525 42.128 38.7892 42.688 38.7892 43.416V47H37.3052ZM50.9694 38.74C50.6894 38.74 50.4561 38.656 50.2694 38.488C50.0921 38.3107 50.0034 38.0913 50.0034 37.83C50.0034 37.5687 50.0921 37.354 50.2694 37.186C50.4561 37.0087 50.6894 36.92 50.9694 36.92C51.2494 36.92 51.4781 37.0087 51.6554 37.186C51.8421 37.354 51.9354 37.5687 51.9354 37.83C51.9354 38.0913 51.8421 38.3107 51.6554 38.488C51.4781 38.656 51.2494 38.74 50.9694 38.74ZM50.2274 47V40.056H51.7114V47H50.2274ZM53.6704 47V36.92H55.1544V47H53.6704ZM57.0337 47V36.92H58.5177V47H57.0337ZM61.237 38.74C60.957 38.74 60.7237 38.656 60.537 38.488C60.3597 38.3107 60.271 38.0913 60.271 37.83C60.271 37.5687 60.3597 37.354 60.537 37.186C60.7237 37.0087 60.957 36.92 61.237 36.92C61.517 36.92 61.7457 37.0087 61.923 37.186C62.1097 37.354 62.203 37.5687 62.203 37.83C62.203 38.0913 62.1097 38.3107 61.923 38.488C61.7457 38.656 61.517 38.74 61.237 38.74ZM60.495 47V40.056H61.979V47H60.495ZM67.186 47.168C66.5233 47.168 65.926 47.0187 65.394 46.72C64.8713 46.412 64.456 45.9873 64.148 45.446C63.84 44.8953 63.686 44.256 63.686 43.528C63.686 42.8 63.84 42.1653 64.148 41.624C64.4653 41.0733 64.89 40.6487 65.422 40.35C65.954 40.042 66.5467 39.888 67.2 39.888C67.8627 39.888 68.4553 40.042 68.978 40.35C69.51 40.6487 69.93 41.0733 70.238 41.624C70.5553 42.1653 70.714 42.8 70.714 43.528C70.714 44.256 70.5553 44.8953 70.238 45.446C69.93 45.9873 69.51 46.412 68.978 46.72C68.446 47.0187 67.8487 47.168 67.186 47.168ZM67.186 45.894C67.5407 45.894 67.8673 45.8053 68.166 45.628C68.474 45.4507 68.7213 45.1893 68.908 44.844C69.0947 44.4893 69.188 44.0507 69.188 43.528C69.188 43.0053 69.0947 42.5713 68.908 42.226C68.7307 41.8713 68.488 41.6053 68.18 41.428C67.8813 41.2507 67.5547 41.162 67.2 41.162C66.8453 41.162 66.514 41.2507 66.206 41.428C65.9073 41.6053 65.6647 41.8713 65.478 42.226C65.2913 42.5713 65.198 43.0053 65.198 43.528C65.198 44.0507 65.2913 44.4893 65.478 44.844C65.6647 45.1893 65.9073 45.4507 66.206 45.628C66.5047 45.8053 66.8313 45.894 67.186 45.894ZM72.3189 47V40.056H73.6349L73.7469 41.274C73.9615 40.8447 74.2742 40.5087 74.6849 40.266C75.1049 40.014 75.5855 39.888 76.1269 39.888C76.9669 39.888 77.6249 40.1493 78.1009 40.672C78.5862 41.1947 78.8289 41.974 78.8289 43.01V47H77.3589V43.164C77.3589 41.82 76.8082 41.148 75.7069 41.148C75.1562 41.148 74.6989 41.344 74.3349 41.736C73.9802 42.128 73.8029 42.688 73.8029 43.416V47H72.3189ZM84.104 50.08V40.056H85.434L85.588 41.134C85.812 40.8073 86.12 40.518 86.512 40.266C86.904 40.014 87.408 39.888 88.024 39.888C88.696 39.888 89.2887 40.0467 89.802 40.364C90.3153 40.6813 90.7167 41.1153 91.006 41.666C91.3047 42.2167 91.454 42.842 91.454 43.542C91.454 44.242 91.3047 44.8673 91.006 45.418C90.7167 45.9593 90.3153 46.3887 89.802 46.706C89.2887 47.014 88.6913 47.168 88.01 47.168C87.4687 47.168 86.988 47.0607 86.568 46.846C86.1573 46.6313 85.8307 46.328 85.588 45.936V50.08H84.104ZM87.758 45.88C88.3927 45.88 88.9153 45.6653 89.326 45.236C89.7367 44.7973 89.942 44.228 89.942 43.528C89.942 43.0707 89.8487 42.6647 89.662 42.31C89.4753 41.9553 89.2187 41.68 88.892 41.484C88.5653 41.2787 88.1873 41.176 87.758 41.176C87.1233 41.176 86.6007 41.3953 86.19 41.834C85.7887 42.2727 85.588 42.8373 85.588 43.528C85.588 44.228 85.7887 44.7973 86.19 45.236C86.6007 45.6653 87.1233 45.88 87.758 45.88ZM93.0591 47V40.056H94.3891L94.5151 41.372C94.7578 40.9147 95.0938 40.5553 95.5231 40.294C95.9618 40.0233 96.4891 39.888 97.1051 39.888V41.442H96.6991C96.2884 41.442 95.9198 41.512 95.5931 41.652C95.2758 41.7827 95.0191 42.0113 94.8231 42.338C94.6364 42.6553 94.5431 43.0987 94.5431 43.668V47H93.0591ZM99.2175 38.74C98.9375 38.74 98.7041 38.656 98.5175 38.488C98.3401 38.3107 98.2515 38.0913 98.2515 37.83C98.2515 37.5687 98.3401 37.354 98.5175 37.186C98.7041 37.0087 98.9375 36.92 99.2175 36.92C99.4975 36.92 99.7261 37.0087 99.9035 37.186C100.09 37.354 100.183 37.5687 100.183 37.83C100.183 38.0913 100.09 38.3107 99.9035 38.488C99.7261 38.656 99.4975 38.74 99.2175 38.74ZM98.4755 47V40.056H99.9595V47H98.4755ZM105.208 47.168C104.527 47.168 103.916 47.014 103.374 46.706C102.842 46.398 102.422 45.9733 102.114 45.432C101.816 44.8813 101.666 44.2467 101.666 43.528C101.666 42.8093 101.816 42.1793 102.114 41.638C102.422 41.0873 102.842 40.658 103.374 40.35C103.916 40.042 104.527 39.888 105.208 39.888C106.067 39.888 106.786 40.112 107.364 40.56C107.952 41.008 108.33 41.6147 108.498 42.38H106.944C106.851 41.9973 106.646 41.6987 106.328 41.484C106.011 41.2693 105.638 41.162 105.208 41.162C104.844 41.162 104.508 41.2553 104.2 41.442C103.892 41.6193 103.645 41.8853 103.458 42.24C103.272 42.5853 103.178 43.0147 103.178 43.528C103.178 44.0413 103.272 44.4753 103.458 44.83C103.645 45.1753 103.892 45.4413 104.2 45.628C104.508 45.8147 104.844 45.908 105.208 45.908C105.638 45.908 106.011 45.8007 106.328 45.586C106.646 45.3713 106.851 45.068 106.944 44.676H108.498C108.34 45.4227 107.966 46.0247 107.378 46.482C106.79 46.9393 106.067 47.168 105.208 47.168ZM113.356 47.168C112.675 47.168 112.068 47.0187 111.536 46.72C111.013 46.412 110.603 45.9873 110.304 45.446C110.005 44.9047 109.856 44.2747 109.856 43.556C109.856 42.828 110.001 42.1887 110.29 41.638C110.589 41.0873 110.999 40.658 111.522 40.35C112.054 40.042 112.67 39.888 113.37 39.888C114.051 39.888 114.644 40.042 115.148 40.35C115.652 40.6487 116.044 41.05 116.324 41.554C116.604 42.058 116.744 42.6133 116.744 43.22C116.744 43.3133 116.739 43.416 116.73 43.528C116.73 43.6307 116.725 43.7473 116.716 43.878H111.312C111.359 44.55 111.578 45.0633 111.97 45.418C112.371 45.7633 112.833 45.936 113.356 45.936C113.776 45.936 114.126 45.8427 114.406 45.656C114.695 45.46 114.91 45.1987 115.05 44.872H116.534C116.347 45.5253 115.974 46.0713 115.414 46.51C114.863 46.9487 114.177 47.168 113.356 47.168ZM113.356 41.106C112.861 41.106 112.423 41.2553 112.04 41.554C111.657 41.8433 111.424 42.282 111.34 42.87H115.26C115.232 42.3287 115.041 41.8993 114.686 41.582C114.331 41.2647 113.888 41.106 113.356 41.106ZM124.723 47C124.042 47 123.5 46.8367 123.099 46.51C122.698 46.174 122.497 45.5813 122.497 44.732V41.302H121.307V40.056H122.497L122.679 38.292H123.981V40.056H125.941V41.302H123.981V44.732C123.981 45.1147 124.06 45.3807 124.219 45.53C124.387 45.67 124.672 45.74 125.073 45.74H125.871V47H124.723ZM129.823 47.168C129.235 47.168 128.75 47.07 128.367 46.874C127.985 46.678 127.7 46.4213 127.513 46.104C127.327 45.7773 127.233 45.4227 127.233 45.04C127.233 44.368 127.495 43.836 128.017 43.444C128.54 43.052 129.287 42.856 130.257 42.856H132.077V42.73C132.077 42.1887 131.928 41.7827 131.629 41.512C131.34 41.2413 130.962 41.106 130.495 41.106C130.085 41.106 129.725 41.2087 129.417 41.414C129.119 41.61 128.937 41.904 128.871 42.296H127.387C127.434 41.792 127.602 41.3627 127.891 41.008C128.19 40.644 128.563 40.3687 129.011 40.182C129.469 39.986 129.968 39.888 130.509 39.888C131.48 39.888 132.231 40.1447 132.763 40.658C133.295 41.162 133.561 41.8527 133.561 42.73V47H132.273L132.147 45.81C131.951 46.1927 131.667 46.5147 131.293 46.776C130.92 47.0373 130.43 47.168 129.823 47.168ZM130.117 45.964C130.519 45.964 130.855 45.8707 131.125 45.684C131.405 45.488 131.62 45.2313 131.769 44.914C131.928 44.5967 132.026 44.2467 132.063 43.864H130.411C129.823 43.864 129.403 43.9667 129.151 44.172C128.909 44.3773 128.787 44.634 128.787 44.942C128.787 45.2593 128.904 45.5113 129.137 45.698C129.38 45.8753 129.707 45.964 130.117 45.964ZM138.134 44.872C137.77 44.872 137.434 44.83 137.126 44.746L136.524 45.334C136.626 45.3993 136.752 45.4553 136.902 45.502C137.051 45.5487 137.261 45.5907 137.532 45.628C137.802 45.6653 138.171 45.7027 138.638 45.74C139.562 45.824 140.229 46.048 140.64 46.412C141.05 46.7667 141.256 47.2427 141.256 47.84C141.256 48.2507 141.144 48.638 140.92 49.002C140.705 49.3753 140.364 49.674 139.898 49.898C139.44 50.1313 138.852 50.248 138.134 50.248C137.163 50.248 136.374 50.0613 135.768 49.688C135.17 49.324 134.872 48.7687 134.872 48.022C134.872 47.7327 134.946 47.4433 135.096 47.154C135.254 46.874 135.502 46.608 135.838 46.356C135.642 46.272 135.469 46.1833 135.32 46.09C135.18 45.9873 135.054 45.8847 134.942 45.782V45.446L136.146 44.214C135.604 43.7473 135.334 43.136 135.334 42.38C135.334 41.9227 135.441 41.5073 135.656 41.134C135.88 40.7513 136.202 40.448 136.622 40.224C137.042 40 137.546 39.888 138.134 39.888C138.526 39.888 138.89 39.944 139.226 40.056H141.816V41.036L140.584 41.106C140.808 41.4887 140.92 41.9133 140.92 42.38C140.92 42.8467 140.808 43.2667 140.584 43.64C140.369 44.0133 140.052 44.312 139.632 44.536C139.221 44.76 138.722 44.872 138.134 44.872ZM138.134 43.71C138.563 43.71 138.908 43.598 139.17 43.374C139.44 43.1407 139.576 42.814 139.576 42.394C139.576 41.9647 139.44 41.638 139.17 41.414C138.908 41.19 138.563 41.078 138.134 41.078C137.695 41.078 137.34 41.19 137.07 41.414C136.808 41.638 136.678 41.9647 136.678 42.394C136.678 42.814 136.808 43.1407 137.07 43.374C137.34 43.598 137.695 43.71 138.134 43.71ZM136.272 47.882C136.272 48.2833 136.449 48.582 136.804 48.778C137.158 48.9833 137.602 49.086 138.134 49.086C138.647 49.086 139.062 48.974 139.38 48.75C139.697 48.5353 139.856 48.246 139.856 47.882C139.856 47.6113 139.748 47.378 139.534 47.182C139.319 46.9953 138.913 46.8787 138.316 46.832C137.868 46.804 137.471 46.762 137.126 46.706C136.799 46.8833 136.575 47.0747 136.454 47.28C136.332 47.4853 136.272 47.686 136.272 47.882ZM149.915 47.168C149.252 47.168 148.655 47.0187 148.123 46.72C147.6 46.412 147.185 45.9873 146.877 45.446C146.569 44.8953 146.415 44.256 146.415 43.528C146.415 42.8 146.569 42.1653 146.877 41.624C147.194 41.0733 147.619 40.6487 148.151 40.35C148.683 40.042 149.275 39.888 149.929 39.888C150.591 39.888 151.184 40.042 151.707 40.35C152.239 40.6487 152.659 41.0733 152.967 41.624C153.284 42.1653 153.443 42.8 153.443 43.528C153.443 44.256 153.284 44.8953 152.967 45.446C152.659 45.9873 152.239 46.412 151.707 46.72C151.175 47.0187 150.577 47.168 149.915 47.168ZM149.915 45.894C150.269 45.894 150.596 45.8053 150.895 45.628C151.203 45.4507 151.45 45.1893 151.637 44.844C151.823 44.4893 151.917 44.0507 151.917 43.528C151.917 43.0053 151.823 42.5713 151.637 42.226C151.459 41.8713 151.217 41.6053 150.909 41.428C150.61 41.2507 150.283 41.162 149.929 41.162C149.574 41.162 149.243 41.2507 148.935 41.428C148.636 41.6053 148.393 41.8713 148.207 42.226C148.02 42.5713 147.927 43.0053 147.927 43.528C147.927 44.0507 148.02 44.4893 148.207 44.844C148.393 45.1893 148.636 45.4507 148.935 45.628C149.233 45.8053 149.56 45.894 149.915 45.894ZM155.047 47V40.056H156.363L156.475 41.274C156.69 40.8447 157.003 40.5087 157.413 40.266C157.833 40.014 158.314 39.888 158.855 39.888C159.695 39.888 160.353 40.1493 160.829 40.672C161.315 41.1947 161.557 41.974 161.557 43.01V47H160.087V43.164C160.087 41.82 159.537 41.148 158.435 41.148C157.885 41.148 157.427 41.344 157.063 41.736C156.709 42.128 156.531 42.688 156.531 43.416V47H155.047ZM166.833 47V36.92H168.317V41.176C168.55 40.7747 168.872 40.462 169.283 40.238C169.703 40.0047 170.165 39.888 170.669 39.888C171.499 39.888 172.153 40.1493 172.629 40.672C173.105 41.1947 173.343 41.974 173.343 43.01V47H171.873V43.164C171.873 41.82 171.336 41.148 170.263 41.148C169.703 41.148 169.236 41.344 168.863 41.736C168.499 42.128 168.317 42.688 168.317 43.416V47H166.833ZM175.93 38.74C175.65 38.74 175.417 38.656 175.23 38.488C175.053 38.3107 174.964 38.0913 174.964 37.83C174.964 37.5687 175.053 37.354 175.23 37.186C175.417 37.0087 175.65 36.92 175.93 36.92C176.21 36.92 176.439 37.0087 176.616 37.186C176.803 37.354 176.896 37.5687 176.896 37.83C176.896 38.0913 176.803 38.3107 176.616 38.488C176.439 38.656 176.21 38.74 175.93 38.74ZM175.188 47V40.056H176.672V47H175.188ZM181.403 47.168C180.526 47.168 179.803 46.9533 179.233 46.524C178.664 46.0947 178.337 45.5253 178.253 44.816H179.751C179.826 45.1333 180.003 45.4087 180.283 45.642C180.563 45.866 180.932 45.978 181.389 45.978C181.837 45.978 182.164 45.8847 182.369 45.698C182.575 45.5113 182.677 45.2967 182.677 45.054C182.677 44.6993 182.533 44.4613 182.243 44.34C181.963 44.2093 181.571 44.0927 181.067 43.99C180.675 43.906 180.283 43.794 179.891 43.654C179.509 43.514 179.187 43.318 178.925 43.066C178.673 42.8047 178.547 42.4547 178.547 42.016C178.547 41.4093 178.781 40.9053 179.247 40.504C179.714 40.0933 180.367 39.888 181.207 39.888C181.982 39.888 182.607 40.0747 183.083 40.448C183.569 40.8213 183.853 41.3487 183.937 42.03H182.509C182.463 41.7313 182.323 41.498 182.089 41.33C181.865 41.162 181.562 41.078 181.179 41.078C180.806 41.078 180.517 41.1573 180.311 41.316C180.106 41.4653 180.003 41.6613 180.003 41.904C180.003 42.1467 180.143 42.338 180.423 42.478C180.713 42.618 181.091 42.744 181.557 42.856C182.024 42.9587 182.453 43.08 182.845 43.22C183.247 43.3507 183.569 43.5467 183.811 43.808C184.054 44.0693 184.175 44.452 184.175 44.956C184.185 45.5907 183.937 46.118 183.433 46.538C182.939 46.958 182.262 47.168 181.403 47.168ZM189.323 47V36.92H190.807V41.176C191.04 40.7747 191.362 40.462 191.773 40.238C192.193 40.0047 192.655 39.888 193.159 39.888C193.989 39.888 194.643 40.1493 195.119 40.672C195.595 41.1947 195.833 41.974 195.833 43.01V47H194.363V43.164C194.363 41.82 193.826 41.148 192.753 41.148C192.193 41.148 191.726 41.344 191.353 41.736C190.989 42.128 190.807 42.688 190.807 43.416V47H189.323ZM200.829 47.168C200.147 47.168 199.541 47.0187 199.009 46.72C198.486 46.412 198.075 45.9873 197.777 45.446C197.478 44.9047 197.329 44.2747 197.329 43.556C197.329 42.828 197.473 42.1887 197.763 41.638C198.061 41.0873 198.472 40.658 198.995 40.35C199.527 40.042 200.143 39.888 200.843 39.888C201.524 39.888 202.117 40.042 202.621 40.35C203.125 40.6487 203.517 41.05 203.797 41.554C204.077 42.058 204.217 42.6133 204.217 43.22C204.217 43.3133 204.212 43.416 204.203 43.528C204.203 43.6307 204.198 43.7473 204.189 43.878H198.785C198.831 44.55 199.051 45.0633 199.443 45.418C199.844 45.7633 200.306 45.936 200.829 45.936C201.249 45.936 201.599 45.8427 201.879 45.656C202.168 45.46 202.383 45.1987 202.523 44.872H204.007C203.82 45.5253 203.447 46.0713 202.887 46.51C202.336 46.9487 201.65 47.168 200.829 47.168ZM200.829 41.106C200.334 41.106 199.895 41.2553 199.513 41.554C199.13 41.8433 198.897 42.282 198.813 42.87H202.733C202.705 42.3287 202.513 41.8993 202.159 41.582C201.804 41.2647 201.361 41.106 200.829 41.106ZM208.108 47.168C207.52 47.168 207.035 47.07 206.652 46.874C206.27 46.678 205.985 46.4213 205.798 46.104C205.612 45.7773 205.518 45.4227 205.518 45.04C205.518 44.368 205.78 43.836 206.302 43.444C206.825 43.052 207.572 42.856 208.542 42.856H210.362V42.73C210.362 42.1887 210.213 41.7827 209.914 41.512C209.625 41.2413 209.247 41.106 208.78 41.106C208.37 41.106 208.01 41.2087 207.702 41.414C207.404 41.61 207.222 41.904 207.156 42.296H205.672C205.719 41.792 205.887 41.3627 206.176 41.008C206.475 40.644 206.848 40.3687 207.296 40.182C207.754 39.986 208.253 39.888 208.794 39.888C209.765 39.888 210.516 40.1447 211.048 40.658C211.58 41.162 211.846 41.8527 211.846 42.73V47H210.558L210.432 45.81C210.236 46.1927 209.952 46.5147 209.578 46.776C209.205 47.0373 208.715 47.168 208.108 47.168ZM208.402 45.964C208.804 45.964 209.14 45.8707 209.41 45.684C209.69 45.488 209.905 45.2313 210.054 44.914C210.213 44.5967 210.311 44.2467 210.348 43.864H208.696C208.108 43.864 207.688 43.9667 207.436 44.172C207.194 44.3773 207.072 44.634 207.072 44.942C207.072 45.2593 207.189 45.5113 207.422 45.698C207.665 45.8753 207.992 45.964 208.402 45.964ZM216.741 47.168C216.069 47.168 215.476 47.0093 214.963 46.692C214.449 46.3747 214.048 45.9407 213.759 45.39C213.469 44.8393 213.325 44.214 213.325 43.514C213.325 42.814 213.469 42.1933 213.759 41.652C214.048 41.1013 214.449 40.672 214.963 40.364C215.485 40.0467 216.083 39.888 216.755 39.888C217.305 39.888 217.786 39.9953 218.197 40.21C218.617 40.4247 218.943 40.728 219.177 41.12V36.92H220.661V47H219.331L219.177 45.922C218.953 46.2487 218.645 46.538 218.253 46.79C217.861 47.042 217.357 47.168 216.741 47.168ZM217.007 45.88C217.641 45.88 218.159 45.6607 218.561 45.222C218.971 44.7833 219.177 44.2187 219.177 43.528C219.177 42.828 218.971 42.2633 218.561 41.834C218.159 41.3953 217.641 41.176 217.007 41.176C216.372 41.176 215.849 41.3953 215.439 41.834C215.028 42.2633 214.823 42.828 214.823 43.528C214.823 43.9853 214.916 44.3913 215.103 44.746C215.289 45.1007 215.546 45.3807 215.873 45.586C216.209 45.782 216.587 45.88 217.007 45.88ZM221.706 48.652L222.518 45.348H223.988L222.7 48.652H221.706ZM228.917 47V36.92H230.401V41.176C230.634 40.7747 230.956 40.462 231.367 40.238C231.787 40.0047 232.249 39.888 232.753 39.888C233.583 39.888 234.237 40.1493 234.713 40.672C235.189 41.1947 235.427 41.974 235.427 43.01V47H233.957V43.164C233.957 41.82 233.42 41.148 232.347 41.148C231.787 41.148 231.32 41.344 230.947 41.736C230.583 42.128 230.401 42.688 230.401 43.416V47H228.917ZM240.422 47.168C239.741 47.168 239.134 47.0187 238.602 46.72C238.08 46.412 237.669 45.9873 237.37 45.446C237.072 44.9047 236.922 44.2747 236.922 43.556C236.922 42.828 237.067 42.1887 237.356 41.638C237.655 41.0873 238.066 40.658 238.588 40.35C239.12 40.042 239.736 39.888 240.436 39.888C241.118 39.888 241.71 40.042 242.214 40.35C242.718 40.6487 243.11 41.05 243.39 41.554C243.67 42.058 243.81 42.6133 243.81 43.22C243.81 43.3133 243.806 43.416 243.796 43.528C243.796 43.6307 243.792 43.7473 243.782 43.878H238.378C238.425 44.55 238.644 45.0633 239.036 45.418C239.438 45.7633 239.9 45.936 240.422 45.936C240.842 45.936 241.192 45.8427 241.472 45.656C241.762 45.46 241.976 45.1987 242.116 44.872H243.6C243.414 45.5253 243.04 46.0713 242.48 46.51C241.93 46.9487 241.244 47.168 240.422 47.168ZM240.422 41.106C239.928 41.106 239.489 41.2553 239.106 41.554C238.724 41.8433 238.49 42.282 238.406 42.87H242.326C242.298 42.3287 242.107 41.8993 241.752 41.582C241.398 41.2647 240.954 41.106 240.422 41.106ZM249.717 38.74C249.437 38.74 249.204 38.656 249.017 38.488C248.84 38.3107 248.751 38.0913 248.751 37.83C248.751 37.5687 248.84 37.354 249.017 37.186C249.204 37.0087 249.437 36.92 249.717 36.92C249.997 36.92 250.226 37.0087 250.403 37.186C250.59 37.354 250.683 37.5687 250.683 37.83C250.683 38.0913 250.59 38.3107 250.403 38.488C250.226 38.656 249.997 38.74 249.717 38.74ZM248.975 47V40.056H250.459V47H248.975ZM255.19 47.168C254.313 47.168 253.59 46.9533 253.02 46.524C252.451 46.0947 252.124 45.5253 252.04 44.816H253.538C253.613 45.1333 253.79 45.4087 254.07 45.642C254.35 45.866 254.719 45.978 255.176 45.978C255.624 45.978 255.951 45.8847 256.156 45.698C256.362 45.5113 256.464 45.2967 256.464 45.054C256.464 44.6993 256.32 44.4613 256.03 44.34C255.75 44.2093 255.358 44.0927 254.854 43.99C254.462 43.906 254.07 43.794 253.678 43.654C253.296 43.514 252.974 43.318 252.712 43.066C252.46 42.8047 252.334 42.4547 252.334 42.016C252.334 41.4093 252.568 40.9053 253.034 40.504C253.501 40.0933 254.154 39.888 254.994 39.888C255.769 39.888 256.394 40.0747 256.87 40.448C257.356 40.8213 257.64 41.3487 257.724 42.03H256.296C256.25 41.7313 256.11 41.498 255.876 41.33C255.652 41.162 255.349 41.078 254.966 41.078C254.593 41.078 254.304 41.1573 254.098 41.316C253.893 41.4653 253.79 41.6613 253.79 41.904C253.79 42.1467 253.93 42.338 254.21 42.478C254.5 42.618 254.878 42.744 255.344 42.856C255.811 42.9587 256.24 43.08 256.632 43.22C257.034 43.3507 257.356 43.5467 257.598 43.808C257.841 44.0693 257.962 44.452 257.962 44.956C257.972 45.5907 257.724 46.118 257.22 46.538C256.726 46.958 256.049 47.168 255.19 47.168ZM266.022 47C265.341 47 264.799 46.8367 264.398 46.51C263.997 46.174 263.796 45.5813 263.796 44.732V41.302H262.606V40.056H263.796L263.978 38.292H265.28V40.056H267.24V41.302H265.28V44.732C265.28 45.1147 265.359 45.3807 265.518 45.53C265.686 45.67 265.971 45.74 266.372 45.74H267.17V47H266.022ZM268.77 47V36.92H270.254V41.176C270.487 40.7747 270.809 40.462 271.22 40.238C271.64 40.0047 272.102 39.888 272.606 39.888C273.437 39.888 274.09 40.1493 274.566 40.672C275.042 41.1947 275.28 41.974 275.28 43.01V47H273.81V43.164C273.81 41.82 273.273 41.148 272.2 41.148C271.64 41.148 271.173 41.344 270.8 41.736C270.436 42.128 270.254 42.688 270.254 43.416V47H268.77ZM280.276 47.168C279.595 47.168 278.988 47.0187 278.456 46.72C277.933 46.412 277.523 45.9873 277.224 45.446C276.925 44.9047 276.776 44.2747 276.776 43.556C276.776 42.828 276.921 42.1887 277.21 41.638C277.509 41.0873 277.919 40.658 278.442 40.35C278.974 40.042 279.59 39.888 280.29 39.888C280.971 39.888 281.564 40.042 282.068 40.35C282.572 40.6487 282.964 41.05 283.244 41.554C283.524 42.058 283.664 42.6133 283.664 43.22C283.664 43.3133 283.659 43.416 283.65 43.528C283.65 43.6307 283.645 43.7473 283.636 43.878H278.232C278.279 44.55 278.498 45.0633 278.89 45.418C279.291 45.7633 279.753 45.936 280.276 45.936C280.696 45.936 281.046 45.8427 281.326 45.656C281.615 45.46 281.83 45.1987 281.97 44.872H283.454C283.267 45.5253 282.894 46.0713 282.334 46.51C281.783 46.9487 281.097 47.168 280.276 47.168ZM280.276 41.106C279.781 41.106 279.343 41.2553 278.96 41.554C278.577 41.8433 278.344 42.282 278.26 42.87H282.18C282.152 42.3287 281.961 41.8993 281.606 41.582C281.251 41.2647 280.808 41.106 280.276 41.106ZM3.85 65C3.16867 65 2.62733 64.8367 2.226 64.51C1.82467 64.174 1.624 63.5813 1.624 62.732V59.302H0.434V58.056H1.624L1.806 56.292H3.108V58.056H5.068V59.302H3.108V62.732C3.108 63.1147 3.18733 63.3807 3.346 63.53C3.514 63.67 3.79867 63.74 4.2 63.74H4.998V65H3.85ZM8.95016 65.168C8.36216 65.168 7.87682 65.07 7.49416 64.874C7.11149 64.678 6.82682 64.4213 6.64016 64.104C6.45349 63.7773 6.36016 63.4227 6.36016 63.04C6.36016 62.368 6.62149 61.836 7.14416 61.444C7.66682 61.052 8.41349 60.856 9.38416 60.856H11.2042V60.73C11.2042 60.1887 11.0548 59.7827 10.7562 59.512C10.4668 59.2413 10.0888 59.106 9.62216 59.106C9.21149 59.106 8.85216 59.2087 8.54416 59.414C8.24549 59.61 8.06349 59.904 7.99816 60.296H6.51416C6.56082 59.792 6.72882 59.3627 7.01816 59.008C7.31682 58.644 7.69016 58.3687 8.13816 58.182C8.59549 57.986 9.09482 57.888 9.63616 57.888C10.6068 57.888 11.3582 58.1447 11.8902 58.658C12.4222 59.162 12.6882 59.8527 12.6882 60.73V65H11.4002L11.2742 63.81C11.0782 64.1927 10.7935 64.5147 10.4202 64.776C10.0468 65.0373 9.55682 65.168 8.95016 65.168ZM9.24416 63.964C9.64549 63.964 9.98149 63.8707 10.2522 63.684C10.5322 63.488 10.7468 63.2313 10.8962 62.914C11.0548 62.5967 11.1528 62.2467 11.1902 61.864H9.53816C8.95016 61.864 8.53016 61.9667 8.27816 62.172C8.03549 62.3773 7.91416 62.634 7.91416 62.942C7.91416 63.2593 8.03082 63.5113 8.26416 63.698C8.50682 63.8753 8.83349 63.964 9.24416 63.964ZM14.4185 65V58.056H15.7485L15.8745 59.372C16.1171 58.9147 16.4531 58.5553 16.8825 58.294C17.3211 58.0233 17.8485 57.888 18.4645 57.888V59.442H18.0585C17.6478 59.442 17.2791 59.512 16.9525 59.652C16.6351 59.7827 16.3785 60.0113 16.1825 60.338C15.9958 60.6553 15.9025 61.0987 15.9025 61.668V65H14.4185ZM22.4148 62.872C22.0508 62.872 21.7148 62.83 21.4068 62.746L20.8048 63.334C20.9074 63.3993 21.0334 63.4553 21.1828 63.502C21.3321 63.5487 21.5421 63.5907 21.8128 63.628C22.0834 63.6653 22.4521 63.7027 22.9188 63.74C23.8428 63.824 24.5101 64.048 24.9208 64.412C25.3314 64.7667 25.5368 65.2427 25.5368 65.84C25.5368 66.2507 25.4248 66.638 25.2008 67.002C24.9861 67.3753 24.6454 67.674 24.1788 67.898C23.7214 68.1313 23.1334 68.248 22.4148 68.248C21.4441 68.248 20.6554 68.0613 20.0488 67.688C19.4514 67.324 19.1528 66.7687 19.1528 66.022C19.1528 65.7327 19.2274 65.4433 19.3768 65.154C19.5354 64.874 19.7828 64.608 20.1188 64.356C19.9228 64.272 19.7501 64.1833 19.6008 64.09C19.4608 63.9873 19.3348 63.8847 19.2228 63.782V63.446L20.4268 62.214C19.8854 61.7473 19.6148 61.136 19.6148 60.38C19.6148 59.9227 19.7221 59.5073 19.9368 59.134C20.1608 58.7513 20.4828 58.448 20.9028 58.224C21.3228 58 21.8268 57.888 22.4148 57.888C22.8068 57.888 23.1708 57.944 23.5068 58.056H26.0968V59.036L24.8648 59.106C25.0888 59.4887 25.2008 59.9133 25.2008 60.38C25.2008 60.8467 25.0888 61.2667 24.8648 61.64C24.6501 62.0133 24.3328 62.312 23.9128 62.536C23.5021 62.76 23.0028 62.872 22.4148 62.872ZM22.4148 61.71C22.8441 61.71 23.1894 61.598 23.4508 61.374C23.7214 61.1407 23.8568 60.814 23.8568 60.394C23.8568 59.9647 23.7214 59.638 23.4508 59.414C23.1894 59.19 22.8441 59.078 22.4148 59.078C21.9761 59.078 21.6214 59.19 21.3508 59.414C21.0894 59.638 20.9588 59.9647 20.9588 60.394C20.9588 60.814 21.0894 61.1407 21.3508 61.374C21.6214 61.598 21.9761 61.71 22.4148 61.71ZM20.5528 65.882C20.5528 66.2833 20.7301 66.582 21.0848 66.778C21.4394 66.9833 21.8828 67.086 22.4148 67.086C22.9281 67.086 23.3434 66.974 23.6608 66.75C23.9781 66.5353 24.1368 66.246 24.1368 65.882C24.1368 65.6113 24.0294 65.378 23.8148 65.182C23.6001 64.9953 23.1941 64.8787 22.5968 64.832C22.1488 64.804 21.7521 64.762 21.4068 64.706C21.0801 64.8833 20.8561 65.0747 20.7348 65.28C20.6134 65.4853 20.5528 65.686 20.5528 65.882ZM30.395 65.168C29.7137 65.168 29.107 65.0187 28.575 64.72C28.0523 64.412 27.6417 63.9873 27.343 63.446C27.0443 62.9047 26.895 62.2747 26.895 61.556C26.895 60.828 27.0397 60.1887 27.329 59.638C27.6277 59.0873 28.0383 58.658 28.561 58.35C29.093 58.042 29.709 57.888 30.409 57.888C31.0903 57.888 31.683 58.042 32.187 58.35C32.691 58.6487 33.083 59.05 33.363 59.554C33.643 60.058 33.783 60.6133 33.783 61.22C33.783 61.3133 33.7783 61.416 33.769 61.528C33.769 61.6307 33.7643 61.7473 33.755 61.878H28.351C28.3977 62.55 28.617 63.0633 29.009 63.418C29.4103 63.7633 29.8723 63.936 30.395 63.936C30.815 63.936 31.165 63.8427 31.445 63.656C31.7343 63.46 31.949 63.1987 32.089 62.872H33.573C33.3863 63.5253 33.013 64.0713 32.453 64.51C31.9023 64.9487 31.2163 65.168 30.395 65.168ZM30.395 59.106C29.9003 59.106 29.4617 59.2553 29.079 59.554C28.6963 59.8433 28.463 60.282 28.379 60.87H32.299C32.271 60.3287 32.0797 59.8993 31.725 59.582C31.3703 59.2647 30.927 59.106 30.395 59.106ZM38.057 65C37.3757 65 36.8344 64.8367 36.433 64.51C36.0317 64.174 35.831 63.5813 35.831 62.732V59.302H34.641V58.056H35.831L36.013 56.292H37.315V58.056H39.275V59.302H37.315V62.732C37.315 63.1147 37.3944 63.3807 37.553 63.53C37.721 63.67 38.0057 63.74 38.407 63.74H39.205V65H38.057ZM47.5805 65.168C46.9179 65.168 46.3205 65.0187 45.7885 64.72C45.2659 64.412 44.8505 63.9873 44.5425 63.446C44.2345 62.8953 44.0805 62.256 44.0805 61.528C44.0805 60.8 44.2345 60.1653 44.5425 59.624C44.8599 59.0733 45.2845 58.6487 45.8165 58.35C46.3485 58.042 46.9412 57.888 47.5945 57.888C48.2572 57.888 48.8499 58.042 49.3725 58.35C49.9045 58.6487 50.3245 59.0733 50.6325 59.624C50.9499 60.1653 51.1085 60.8 51.1085 61.528C51.1085 62.256 50.9499 62.8953 50.6325 63.446C50.3245 63.9873 49.9045 64.412 49.3725 64.72C48.8405 65.0187 48.2432 65.168 47.5805 65.168ZM47.5805 63.894C47.9352 63.894 48.2619 63.8053 48.5605 63.628C48.8685 63.4507 49.1159 63.1893 49.3025 62.844C49.4892 62.4893 49.5825 62.0507 49.5825 61.528C49.5825 61.0053 49.4892 60.5713 49.3025 60.226C49.1252 59.8713 48.8825 59.6053 48.5745 59.428C48.2759 59.2507 47.9492 59.162 47.5945 59.162C47.2399 59.162 46.9085 59.2507 46.6005 59.428C46.3019 59.6053 46.0592 59.8713 45.8725 60.226C45.6859 60.5713 45.5925 61.0053 45.5925 61.528C45.5925 62.0507 45.6859 62.4893 45.8725 62.844C46.0592 63.1893 46.3019 63.4507 46.6005 63.628C46.8992 63.8053 47.2259 63.894 47.5805 63.894ZM53.0634 65V59.302H52.0694V58.056H53.0634V57.048C53.0634 56.292 53.2501 55.7507 53.6234 55.424C54.0061 55.088 54.5427 54.92 55.2334 54.92H55.9614V56.18H55.4574C55.1307 56.18 54.8974 56.25 54.7574 56.39C54.6174 56.5207 54.5474 56.7447 54.5474 57.062V58.056H56.1434V59.302H54.5474V65H53.0634ZM61.0806 65V54.92H62.5646V59.176C62.7979 58.7747 63.1199 58.462 63.5306 58.238C63.9506 58.0047 64.4126 57.888 64.9166 57.888C65.7472 57.888 66.4006 58.1493 66.8766 58.672C67.3526 59.1947 67.5906 59.974 67.5906 61.01V65H66.1206V61.164C66.1206 59.82 65.5839 59.148 64.5106 59.148C63.9506 59.148 63.4839 59.344 63.1106 59.736C62.7466 60.128 62.5646 60.688 62.5646 61.416V65H61.0806ZM70.1784 56.74C69.8984 56.74 69.6651 56.656 69.4784 56.488C69.3011 56.3107 69.2124 56.0913 69.2124 55.83C69.2124 55.5687 69.3011 55.354 69.4784 55.186C69.6651 55.0087 69.8984 54.92 70.1784 54.92C70.4584 54.92 70.6871 55.0087 70.8644 55.186C71.0511 55.354 71.1444 55.5687 71.1444 55.83C71.1444 56.0913 71.0511 56.3107 70.8644 56.488C70.6871 56.656 70.4584 56.74 70.1784 56.74ZM69.4364 65V58.056H70.9204V65H69.4364ZM75.7914 65C75.1101 65 74.5687 64.8367 74.1674 64.51C73.7661 64.174 73.5654 63.5813 73.5654 62.732V59.302H72.3754V58.056H73.5654L73.7474 56.292H75.0494V58.056H77.0094V59.302H75.0494V62.732C75.0494 63.1147 75.1287 63.3807 75.2874 63.53C75.4554 63.67 75.7401 63.74 76.1414 63.74H76.9394V65H75.7914ZM82.0669 65V58.056H83.3829L83.5089 59.036C83.7329 58.6813 84.0269 58.4013 84.3909 58.196C84.7642 57.9907 85.1936 57.888 85.6789 57.888C86.7802 57.888 87.5456 58.322 87.9749 59.19C88.2269 58.7887 88.5629 58.4713 88.9829 58.238C89.4122 58.0047 89.8742 57.888 90.3689 57.888C91.2369 57.888 91.9182 58.1493 92.4129 58.672C92.9076 59.1947 93.1549 59.974 93.1549 61.01V65H91.6709V61.164C91.6709 59.82 91.1576 59.148 90.1309 59.148C89.6082 59.148 89.1789 59.344 88.8429 59.736C88.5162 60.128 88.3529 60.688 88.3529 61.416V65H86.8689V61.164C86.8689 59.82 86.3509 59.148 85.3149 59.148C84.8016 59.148 84.3769 59.344 84.0409 59.736C83.7142 60.128 83.5509 60.688 83.5509 61.416V65H82.0669ZM98.1391 65.168C97.4578 65.168 96.8511 65.0187 96.3191 64.72C95.7965 64.412 95.3858 63.9873 95.0871 63.446C94.7885 62.9047 94.6391 62.2747 94.6391 61.556C94.6391 60.828 94.7838 60.1887 95.0731 59.638C95.3718 59.0873 95.7825 58.658 96.3051 58.35C96.8371 58.042 97.4531 57.888 98.1531 57.888C98.8345 57.888 99.4271 58.042 99.9311 58.35C100.435 58.6487 100.827 59.05 101.107 59.554C101.387 60.058 101.527 60.6133 101.527 61.22C101.527 61.3133 101.522 61.416 101.513 61.528C101.513 61.6307 101.508 61.7473 101.499 61.878H96.0951C96.1418 62.55 96.3611 63.0633 96.7531 63.418C97.1545 63.7633 97.6165 63.936 98.1391 63.936C98.5591 63.936 98.9091 63.8427 99.1891 63.656C99.4785 63.46 99.6931 63.1987 99.8331 62.872H101.317C101.13 63.5253 100.757 64.0713 100.197 64.51C99.6465 64.9487 98.9605 65.168 98.1391 65.168ZM98.1391 59.106C97.6445 59.106 97.2058 59.2553 96.8231 59.554C96.4405 59.8433 96.2071 60.282 96.1231 60.87H100.043C100.015 60.3287 99.8238 59.8993 99.4691 59.582C99.1145 59.2647 98.6711 59.106 98.1391 59.106ZM103.067 65V58.056H104.383L104.495 59.274C104.71 58.8447 105.022 58.5087 105.433 58.266C105.853 58.014 106.334 57.888 106.875 57.888C107.715 57.888 108.373 58.1493 108.849 58.672C109.334 59.1947 109.577 59.974 109.577 61.01V65H108.107V61.164C108.107 59.82 107.556 59.148 106.455 59.148C105.904 59.148 105.447 59.344 105.083 59.736C104.728 60.128 104.551 60.688 104.551 61.416V65H103.067ZM117.204 65.168C116.616 65.168 116.131 65.07 115.748 64.874C115.365 64.678 115.081 64.4213 114.894 64.104C114.707 63.7773 114.614 63.4227 114.614 63.04C114.614 62.368 114.875 61.836 115.398 61.444C115.921 61.052 116.667 60.856 117.638 60.856H119.458V60.73C119.458 60.1887 119.309 59.7827 119.01 59.512C118.721 59.2413 118.343 59.106 117.876 59.106C117.465 59.106 117.106 59.2087 116.798 59.414C116.499 59.61 116.317 59.904 116.252 60.296H114.768C114.815 59.792 114.983 59.3627 115.272 59.008C115.571 58.644 115.944 58.3687 116.392 58.182C116.849 57.986 117.349 57.888 117.89 57.888C118.861 57.888 119.612 58.1447 120.144 58.658C120.676 59.162 120.942 59.8527 120.942 60.73V65H119.654L119.528 63.81C119.332 64.1927 119.047 64.5147 118.674 64.776C118.301 65.0373 117.811 65.168 117.204 65.168ZM117.498 63.964C117.899 63.964 118.235 63.8707 118.506 63.684C118.786 63.488 119.001 63.2313 119.15 62.914C119.309 62.5967 119.407 62.2467 119.444 61.864H117.792C117.204 61.864 116.784 61.9667 116.532 62.172C116.289 62.3773 116.168 62.634 116.168 62.942C116.168 63.2593 116.285 63.5113 116.518 63.698C116.761 63.8753 117.087 63.964 117.498 63.964ZM122.672 65V58.056H123.988L124.1 59.274C124.315 58.8447 124.628 58.5087 125.038 58.266C125.458 58.014 125.939 57.888 126.48 57.888C127.32 57.888 127.978 58.1493 128.454 58.672C128.94 59.1947 129.182 59.974 129.182 61.01V65H127.712V61.164C127.712 59.82 127.162 59.148 126.06 59.148C125.51 59.148 125.052 59.344 124.688 59.736C124.334 60.128 124.156 60.688 124.156 61.416V65H122.672ZM134.094 65.168C133.422 65.168 132.83 65.0093 132.316 64.692C131.803 64.3747 131.402 63.9407 131.112 63.39C130.823 62.8393 130.678 62.214 130.678 61.514C130.678 60.814 130.823 60.1933 131.112 59.652C131.402 59.1013 131.803 58.672 132.316 58.364C132.839 58.0467 133.436 57.888 134.108 57.888C134.659 57.888 135.14 57.9953 135.55 58.21C135.97 58.4247 136.297 58.728 136.53 59.12V54.92H138.014V65H136.684L136.53 63.922C136.306 64.2487 135.998 64.538 135.606 64.79C135.214 65.042 134.71 65.168 134.094 65.168ZM134.36 63.88C134.995 63.88 135.513 63.6607 135.914 63.222C136.325 62.7833 136.53 62.2187 136.53 61.528C136.53 60.828 136.325 60.2633 135.914 59.834C135.513 59.3953 134.995 59.176 134.36 59.176C133.726 59.176 133.203 59.3953 132.792 59.834C132.382 60.2633 132.176 60.828 132.176 61.528C132.176 61.9853 132.27 62.3913 132.456 62.746C132.643 63.1007 132.9 63.3807 133.226 63.586C133.562 63.782 133.94 63.88 134.36 63.88ZM144.799 65L142.755 58.056H144.239L145.583 63.292L147.095 58.056H148.747L150.259 63.292L151.603 58.056H153.087L151.043 65H149.517L147.921 59.54L146.325 65H144.799ZM157.297 65.168C156.635 65.168 156.037 65.0187 155.505 64.72C154.983 64.412 154.567 63.9873 154.259 63.446C153.951 62.8953 153.797 62.256 153.797 61.528C153.797 60.8 153.951 60.1653 154.259 59.624C154.577 59.0733 155.001 58.6487 155.533 58.35C156.065 58.042 156.658 57.888 157.311 57.888C157.974 57.888 158.567 58.042 159.089 58.35C159.621 58.6487 160.041 59.0733 160.349 59.624C160.667 60.1653 160.825 60.8 160.825 61.528C160.825 62.256 160.667 62.8953 160.349 63.446C160.041 63.9873 159.621 64.412 159.089 64.72C158.557 65.0187 157.96 65.168 157.297 65.168ZM157.297 63.894C157.652 63.894 157.979 63.8053 158.277 63.628C158.585 63.4507 158.833 63.1893 159.019 62.844C159.206 62.4893 159.299 62.0507 159.299 61.528C159.299 61.0053 159.206 60.5713 159.019 60.226C158.842 59.8713 158.599 59.6053 158.291 59.428C157.993 59.2507 157.666 59.162 157.311 59.162C156.957 59.162 156.625 59.2507 156.317 59.428C156.019 59.6053 155.776 59.8713 155.589 60.226C155.403 60.5713 155.309 61.0053 155.309 61.528C155.309 62.0507 155.403 62.4893 155.589 62.844C155.776 63.1893 156.019 63.4507 156.317 63.628C156.616 63.8053 156.943 63.894 157.297 63.894ZM162.43 65V58.056H163.746L163.872 59.036C164.096 58.6813 164.39 58.4013 164.754 58.196C165.128 57.9907 165.557 57.888 166.042 57.888C167.144 57.888 167.909 58.322 168.338 59.19C168.59 58.7887 168.926 58.4713 169.346 58.238C169.776 58.0047 170.238 57.888 170.732 57.888C171.6 57.888 172.282 58.1493 172.776 58.672C173.271 59.1947 173.518 59.974 173.518 61.01V65H172.034V61.164C172.034 59.82 171.521 59.148 170.494 59.148C169.972 59.148 169.542 59.344 169.206 59.736C168.88 60.128 168.716 60.688 168.716 61.416V65H167.232V61.164C167.232 59.82 166.714 59.148 165.678 59.148C165.165 59.148 164.74 59.344 164.404 59.736C164.078 60.128 163.914 60.688 163.914 61.416V65H162.43ZM178.502 65.168C177.821 65.168 177.214 65.0187 176.682 64.72C176.16 64.412 175.749 63.9873 175.45 63.446C175.152 62.9047 175.002 62.2747 175.002 61.556C175.002 60.828 175.147 60.1887 175.436 59.638C175.735 59.0873 176.146 58.658 176.668 58.35C177.2 58.042 177.816 57.888 178.516 57.888C179.198 57.888 179.79 58.042 180.294 58.35C180.798 58.6487 181.19 59.05 181.47 59.554C181.75 60.058 181.89 60.6133 181.89 61.22C181.89 61.3133 181.886 61.416 181.876 61.528C181.876 61.6307 181.872 61.7473 181.862 61.878H176.458C176.505 62.55 176.724 63.0633 177.116 63.418C177.518 63.7633 177.98 63.936 178.502 63.936C178.922 63.936 179.272 63.8427 179.552 63.656C179.842 63.46 180.056 63.1987 180.196 62.872H181.68C181.494 63.5253 181.12 64.0713 180.56 64.51C180.01 64.9487 179.324 65.168 178.502 65.168ZM178.502 59.106C178.008 59.106 177.569 59.2553 177.186 59.554C176.804 59.8433 176.57 60.282 176.486 60.87H180.406C180.378 60.3287 180.187 59.8993 179.832 59.582C179.478 59.2647 179.034 59.106 178.502 59.106ZM183.43 65V58.056H184.746L184.858 59.274C185.073 58.8447 185.386 58.5087 185.796 58.266C186.216 58.014 186.697 57.888 187.238 57.888C188.078 57.888 188.736 58.1493 189.212 58.672C189.698 59.1947 189.94 59.974 189.94 61.01V65H188.47V61.164C188.47 59.82 187.92 59.148 186.818 59.148C186.268 59.148 185.81 59.344 185.446 59.736C185.092 60.128 184.914 60.688 184.914 61.416V65H183.43ZM198.463 65.168C197.782 65.168 197.175 65.0187 196.643 64.72C196.121 64.412 195.71 63.9873 195.411 63.446C195.113 62.9047 194.963 62.2747 194.963 61.556C194.963 60.828 195.108 60.1887 195.397 59.638C195.696 59.0873 196.107 58.658 196.629 58.35C197.161 58.042 197.777 57.888 198.477 57.888C199.159 57.888 199.751 58.042 200.255 58.35C200.759 58.6487 201.151 59.05 201.431 59.554C201.711 60.058 201.851 60.6133 201.851 61.22C201.851 61.3133 201.847 61.416 201.837 61.528C201.837 61.6307 201.833 61.7473 201.823 61.878H196.419C196.466 62.55 196.685 63.0633 197.077 63.418C197.479 63.7633 197.941 63.936 198.463 63.936C198.883 63.936 199.233 63.8427 199.513 63.656C199.803 63.46 200.017 63.1987 200.157 62.872H201.641C201.455 63.5253 201.081 64.0713 200.521 64.51C199.971 64.9487 199.285 65.168 198.463 65.168ZM198.463 59.106C197.969 59.106 197.53 59.2553 197.147 59.554C196.765 59.8433 196.531 60.282 196.447 60.87H200.367C200.339 60.3287 200.148 59.8993 199.793 59.582C199.439 59.2647 198.995 59.106 198.463 59.106ZM205.064 65L202.46 58.056H204.014L205.946 63.586L207.878 58.056H209.418L206.828 65H205.064ZM213.53 65.168C212.848 65.168 212.242 65.0187 211.71 64.72C211.187 64.412 210.776 63.9873 210.478 63.446C210.179 62.9047 210.03 62.2747 210.03 61.556C210.03 60.828 210.174 60.1887 210.464 59.638C210.762 59.0873 211.173 58.658 211.696 58.35C212.228 58.042 212.844 57.888 213.544 57.888C214.225 57.888 214.818 58.042 215.322 58.35C215.826 58.6487 216.218 59.05 216.498 59.554C216.778 60.058 216.918 60.6133 216.918 61.22C216.918 61.3133 216.913 61.416 216.904 61.528C216.904 61.6307 216.899 61.7473 216.89 61.878H211.486C211.532 62.55 211.752 63.0633 212.144 63.418C212.545 63.7633 213.007 63.936 213.53 63.936C213.95 63.936 214.3 63.8427 214.58 63.656C214.869 63.46 215.084 63.1987 215.224 62.872H216.708C216.521 63.5253 216.148 64.0713 215.588 64.51C215.037 64.9487 214.351 65.168 213.53 65.168ZM213.53 59.106C213.035 59.106 212.596 59.2553 212.214 59.554C211.831 59.8433 211.598 60.282 211.514 60.87H215.434C215.406 60.3287 215.214 59.8993 214.86 59.582C214.505 59.2647 214.062 59.106 213.53 59.106ZM218.458 65V58.056H219.788L219.914 59.372C220.156 58.9147 220.492 58.5553 220.922 58.294C221.36 58.0233 221.888 57.888 222.504 57.888V59.442H222.098C221.687 59.442 221.318 59.512 220.992 59.652C220.674 59.7827 220.418 60.0113 220.222 60.338C220.035 60.6553 219.942 61.0987 219.942 61.668V65H218.458ZM224.588 68.08L226.254 64.426H225.848L223.104 58.056H224.714L226.842 63.194L229.068 58.056H230.636L226.156 68.08H224.588ZM233.242 65L231.198 58.056H232.682L234.026 63.292L235.538 58.056H237.19L238.702 63.292L240.046 58.056H241.53L239.486 65H237.96L236.364 59.54L234.768 65H233.242ZM242.752 65V54.92H244.236V59.176C244.47 58.7747 244.792 58.462 245.202 58.238C245.622 58.0047 246.084 57.888 246.588 57.888C247.419 57.888 248.072 58.1493 248.548 58.672C249.024 59.1947 249.262 59.974 249.262 61.01V65H247.792V61.164C247.792 59.82 247.256 59.148 246.182 59.148C245.622 59.148 245.156 59.344 244.782 59.736C244.418 60.128 244.236 60.688 244.236 61.416V65H242.752ZM254.258 65.168C253.577 65.168 252.97 65.0187 252.438 64.72C251.916 64.412 251.505 63.9873 251.206 63.446C250.908 62.9047 250.758 62.2747 250.758 61.556C250.758 60.828 250.903 60.1887 251.192 59.638C251.491 59.0873 251.902 58.658 252.424 58.35C252.956 58.042 253.572 57.888 254.272 57.888C254.954 57.888 255.546 58.042 256.05 58.35C256.554 58.6487 256.946 59.05 257.226 59.554C257.506 60.058 257.646 60.6133 257.646 61.22C257.646 61.3133 257.642 61.416 257.632 61.528C257.632 61.6307 257.628 61.7473 257.618 61.878H252.214C252.261 62.55 252.48 63.0633 252.872 63.418C253.274 63.7633 253.736 63.936 254.258 63.936C254.678 63.936 255.028 63.8427 255.308 63.656C255.598 63.46 255.812 63.1987 255.952 62.872H257.436C257.25 63.5253 256.876 64.0713 256.316 64.51C255.766 64.9487 255.08 65.168 254.258 65.168ZM254.258 59.106C253.764 59.106 253.325 59.2553 252.942 59.554C252.56 59.8433 252.326 60.282 252.242 60.87H256.162C256.134 60.3287 255.943 59.8993 255.588 59.582C255.234 59.2647 254.79 59.106 254.258 59.106ZM259.186 65V58.056H260.516L260.642 59.372C260.885 58.9147 261.221 58.5553 261.65 58.294C262.089 58.0233 262.616 57.888 263.232 57.888V59.442H262.826C262.415 59.442 262.047 59.512 261.72 59.652C261.403 59.7827 261.146 60.0113 260.95 60.338C260.763 60.6553 260.67 61.0987 260.67 61.668V65H259.186ZM267.561 65.168C266.88 65.168 266.273 65.0187 265.741 64.72C265.218 64.412 264.808 63.9873 264.509 63.446C264.21 62.9047 264.061 62.2747 264.061 61.556C264.061 60.828 264.206 60.1887 264.495 59.638C264.794 59.0873 265.204 58.658 265.727 58.35C266.259 58.042 266.875 57.888 267.575 57.888C268.256 57.888 268.849 58.042 269.353 58.35C269.857 58.6487 270.249 59.05 270.529 59.554C270.809 60.058 270.949 60.6133 270.949 61.22C270.949 61.3133 270.944 61.416 270.935 61.528C270.935 61.6307 270.93 61.7473 270.921 61.878H265.517C265.564 62.55 265.783 63.0633 266.175 63.418C266.576 63.7633 267.038 63.936 267.561 63.936C267.981 63.936 268.331 63.8427 268.611 63.656C268.9 63.46 269.115 63.1987 269.255 62.872H270.739C270.552 63.5253 270.179 64.0713 269.619 64.51C269.068 64.9487 268.382 65.168 267.561 65.168ZM267.561 59.106C267.066 59.106 266.628 59.2553 266.245 59.554C265.862 59.8433 265.629 60.282 265.545 60.87H269.465C269.437 60.3287 269.246 59.8993 268.891 59.582C268.536 59.2647 268.093 59.106 267.561 59.106ZM273.077 65.084C272.797 65.084 272.563 64.9953 272.377 64.818C272.199 64.6313 272.111 64.412 272.111 64.16C272.111 63.8987 272.199 63.6793 272.377 63.502C272.563 63.3153 272.797 63.222 273.077 63.222C273.357 63.222 273.585 63.3153 273.763 63.502C273.94 63.6793 274.029 63.8987 274.029 64.16C274.029 64.412 273.94 64.6313 273.763 64.818C273.585 64.9953 273.357 65.084 273.077 65.084Z" fill="white"/>
</svg>
